/* XPM */
static char *r_higashi[] = {
/* columns rows colors chars-per-pixel */
"64 64 172 2 ",
"   c #010101",
".  c #070806",
"X  c #080907",
"o  c #0B0C09",
"O  c #0F110D",
"+  c #11120F",
"@  c #14190F",
"#  c #141611",
"$  c #161913",
"%  c #191C16",
"&  c #1C1E18",
"*  c #1C2215",
"=  c #1D201A",
"-  c #22261D",
";  c #22281B",
":  c #242720",
">  c #262A21",
",  c #292E23",
"<  c #2C3224",
"1  c #2E3328",
"2  c #32372D",
"3  c #353B2D",
"4  c #383F2F",
"5  c #373B31",
"6  c #383D32",
"7  c #374129",
"8  c #3A432D",
"9  c #3C4234",
"0  c #3F4A33",
"q  c #3F4438",
"w  c #414A37",
"e  c #41473A",
"r  c #434A3B",
"t  c #455038",
"y  c #4D5C3B",
"u  c #505E3F",
"i  c #494D42",
"p  c #4B5342",
"a  c #4F5846",
"s  c #505946",
"d  c #505648",
"f  c #535C4A",
"g  c #556342",
"h  c #586645",
"j  c #596A41",
"k  c #57614C",
"l  c #5A644E",
"z  c #5B6A49",
"x  c #5F7247",
"c  c #5F704A",
"v  c #5C6551",
"b  c #5F6952",
"n  c #606F4E",
"m  c #63754D",
"M  c #647949",
"N  c #616B55",
"B  c #657452",
"V  c #66715A",
"C  c #6A755D",
"Z  c #6C7A5C",
"A  c #6D7364",
"S  c #6E7A61",
"D  c #717D63",
"F  c #747D68",
"G  c #73855D",
"H  c #79915C",
"J  c #748165",
"K  c #7A8D63",
"L  c #778369",
"P  c #79866A",
"I  c #7D8A6D",
"U  c #7E8971",
"Y  c #809665",
"T  c #839A65",
"R  c #84976F",
"E  c #84986D",
"W  c #828C75",
"Q  c #838C79",
"!  c #859374",
"~  c #889777",
"^  c #899779",
"/  c #8C9B7B",
"(  c #909E7F",
")  c #89A26A",
"_  c #8FA377",
"`  c #92A57D",
"'  c #96AA7C",
"]  c #97B571",
"[  c #98B772",
"{  c #9CBB76",
"}  c #9BB47B",
"|  c #9FBC7C",
" . c #A7CC7A",
".. c #AACE7E",
"X. c #919F81",
"o. c #969F88",
"O. c #95A583",
"+. c #98A785",
"@. c #96A883",
"#. c #9AAA86",
"$. c #97A18A",
"%. c #9EAD8A",
"&. c #9BB080",
"*. c #9FB08C",
"=. c #A0AF8D",
"-. c #A1BA80",
";. c #A2B38E",
":. c #A6BA8E",
">. c #A8BF8D",
",. c #A2AD94",
"<. c #A4B392",
"1. c #A8B596",
"2. c #A6B890",
"3. c #ABBD95",
"4. c #A9B599",
"5. c #ADBA9B",
"6. c #AEB9A0",
"7. c #A8C684",
"8. c #ACCE82",
"9. c #ABC48C",
"0. c #AFCD8C",
"q. c #B1CD8C",
"w. c #AED084",
"e. c #AFD189",
"r. c #B0D186",
"t. c #B3D38C",
"y. c #ADC394",
"u. c #AEC199",
"i. c #B1C697",
"p. c #B3CD92",
"a. c #B2C49C",
"s. c #B5C99D",
"d. c #B8CE9F",
"f. c #B6D591",
"g. c #B9D694",
"h. c #BBD896",
"j. c #BBD79A",
"k. c #BED99B",
"l. c #B5C4A2",
"z. c #B7C9A1",
"x. c #BACCA2",
"c. c #BDCDA9",
"v. c #BDD2A5",
"b. c #BEDAA1",
"n. c #BFD2A9",
"m. c #C0DB9E",
"M. c #C3DCA4",
"N. c #C1D4AA",
"B. c #C6DEAB",
"V. c #C8DFAC",
"C. c #C6D4B3",
"Z. c #C9D7B6",
"A. c #C7DBB0",
"S. c #C9DFB1",
"D. c #D0DDBD",
"F. c #C7E0AB",
"G. c #C9E0AE",
"H. c #CCE2B3",
"J. c #CFE3B8",
"K. c #D0E4B6",
"L. c #D2E8B6",
"P. c #D2E5BA",
"I. c #D6E8BE",
"U. c #D9EBBF",
"Y. c #D6E7C0",
"T. c #D7E8C1",
"R. c #DAEAC4",
"E. c #DDECC9",
"W. c #E2EFCE",
"Q. c #E3EFD0",
"!. c #E6F1D4",
"~. c #EAF2D9",
/* pixels */
"H.H.H.k.G.U.L.L.S.L.S.P.L.S.S.P.L.L.H.L.S.L.S.S.L.S.S.P.S.L.S.S.L.S.H.H.H.H.L.H.H.J.H.H.H.A.k.H.P.L.L.L.S.P.P.S.L.S.H.H.H.H.K.H.",
"g.t.t.t.M.M.m.m.g.m.m.m.m.m.m.m.k.k.m.j.g.m.m.m.g.f.g.m.m.m.m.m.m.m.m.m.m.t.t.m.g.f.f.f.t.t.t.G.m.m.g.g.m.m.m.m.m.m.m.m.m.m.m.m.",
"t.0...8.m.m.h.h.g.m.m.m.m.m.m.f.k.g.g.g.g.g.g.r.g.m.m.g.m.g.m.m.P u Y 7.t.m.t.t.f.t.f.e.e.8.t.F.m.g.m.g.m.g.m.g.m.m.m.m.r.m.m...",
"R.R.P.H.H.L.P.R.R.P.V.S.H.D.U.P.P.P.P.R.W.R.P.R.P.P.P.P.P.R.P.R.F   X 4 5.U.U.P.R.R.R.R.R.H.H.H.P.P.R.R.L.S.L.P.D.P.P.L.D.U.W.U.",
"J.J.H.H.H.H.H.P.L.L.H.V.V.H.H.P.H.H.H.H.L.H.H.H.M.V.W.R.P.P.P.P.O.      f H.D.L.J.P.P.K.H.H.H.H.L.L.P.L.S.L.S.S.H.L.P.L.H.H.H.L.",
"H.H.H.G.H.H.H.H.H.L.H.H.H.H.H.H.H.H.H.G.G.G.B.B.M.M.P.P.L.S.S.L.O.      8 H.H.H.H.H.H.H.H.G.H.H.S.S.S.L.L.S.V.L.H.H.H.H.H.V.V.V.",
"H.H.H.H.H.H.H.H.H.H.V.H.H.H.H.V.G.H.G.G.G.H.G.H.V.m.L.P.S.S.L.L.O.o     n H.H.H.H.H.P.H.H.H.H.H.L.L.S.S.S.S.L.S.H.H.H.V.H.V.V.H.",
"H.H.H.H.H.H.H.H.V.H.H.H.V.V.H.V.H.G.H.H.G.H.G.H.M.M.P.P.P.L.S.P.=.o   X +.P.P.P.P.n.O.u.B.H.H.H.S.S.S.L.S.S.V.S.H.V.V.H.H.V.H.H.",
"P.S.S.V.S.V.S.S.H.V.S.V.S.V.S.L.V.H.S.G.H.G.G.G.B.k.R.P.P.H.P.P.i.$   1 u.x.<.O.L q o $ N v.H.H.S.V.H.S.S.S.S.S.V.H.H.V.H.V.H.V.",
"S.S.L.L.L.L.S.L.S.S.L.S.S.L.S.V.L.H.H.H.H.L.G.L.F.k.H.H.n.s.;.X.C o   # - * O           o ^ L.H.G.L.H.H.H.L.G.V.H.H.H.H.H.H.H.H.",
"V.M.m.M.M.m.M.V.V.M.M.M.V.M.V.V.y.%.1.i.1.;.#.O.I m v r < * o X       O * < 7 a m c y $ * _ F.b.M.V.M.V.V.M.V.V.m.M.V.M.V.V.V.V.",
"t.g.g.g.q.g.j.f.g.g.g.r.g.t.r.g.g o # $ $ @ o           X * 7 g m = o H { 8.e.t.f.f.t.} } t.f.t.m.g.g.t.t.t.t.t.g.t.t.g.t...t...",
"P.R.S.V.B.L.P.P.P.P.H.L.H.P.L.P.U                 O 5 V @.i.G.P.H.0 $ c.E.R.R.P.P.P.P.R.P.H.B.B.L.P.P.P.L.H.L.S.P.P.P.P.H.P.S.L.",
"L.S.V.M.M.E.~.E.R.R.P.P.P.R.P.R.<.o         X < V ;.C.J.R.R.T.T.P.l & c.Y.J.P.P.J.P.P.J.L.G.k.H.!.W.R.R.R.P.P.R.R.P.R.P.P.P.P.P.",
"V.G.L.S.P.R.P.V.V.V.G.V.V.G.G.G.v.t     $ f O.v.H.J.H.H.H.H.S.S.H.B % i.H.H.H.G.H.G.G.F.H.H.H.P.P.H.V.V.G.G.G.G.V.V.V.V.S.V.S.H.",
"V.V.H.D.P.R.L.H.G.H.H.V.H.G.G.H.H.x.P J 2.H.J.G.G.G.H.G.S.S.S.S.H.Z + <.J.H.G.G.G.H.H.B.V.P.P.P.P.H.H.H.H.V.G.H.S.S.S.S.S.V.H.H.",
"G.G.G.M.B.P.H.H.H.H.S.H.G.G.F.H.B.G.J.J.G.G.J.S.J.A.H.J.G.J.J.J.P.L X @.P.G.H.G.G.H.H.H.y.J ` v.U.H.H.H.G.G.G.G.G.G.G.G.J.S.S.S.",
"G.G.B.b.f.H.H.H.H.V.H.S.H.G.H.H.G.H.G.G.G.S.S.S.H.A.G.G.G.A.G.G.P./ X @.P.H.H.F.M.v.:.D >   X > / H.H.H.G.H.J.A.G.G.G.G.S.S.S.S.",
"H.S.V.M.k.H.P.H.S.V.S.V.B.B.B.B.n./ @.v.B.S.S.S.B.B.B.H.J.A.n.S.n.U X J @.U Z z w < $           # =.H.V.A.F.V.V.G.F.n.G.S.S.S.S.",
"V.V.V.b.H.R.G.F.V.B.M.m.B.B.B.F.F.q X < 0 q q q r a a f a p p 9 7 * . X X .   . X $ $ $ $ .       Y H.M.B.M.M.B.A.G.G.G.M.M.S.B.",
"r.r.8...k.M.f.w...r.r.r.r.f.m.f.f.z                             X $ . * y j G H ) [ [ [ ] <     X T r...r.r.t.g.f.k.f.f.f.f.f.f.",
"t.g.r.8.t.h.h.t.r.g.g.g.m.r.m.m.k.R                   o ; 0 B E &.K X c h.h.f.h.k.h.t.k.q.<     w q.r.g.g.g.g.j.f.b.f.b.b.b.f.b.",
"R.R.P.H.P.R.R.L.H.P.L.H.D.P.U.W.W.D.6           = d Q 6.Z.P.R.R.R.*.X J W.R.R.E.R.R.P.E.C.>     o.U.H.L.P.S.P.P.R.E.E.E.E.E.E.!.",
"P.L.P.Y.P.P.L.H.H.L.L.D.K.H.K.K.P.P.O.o   X - C u.P.E.R.Y.P.P.P.R.;.X S P.P.P.H.P.P.P.P.x.&   : N.S.L.S.H.L.P.S.J.T.L.L.J.J.J.J.",
"S.S.P.S.H.H.H.L.S.P.S.P.K.V.K.K.H.J.S.r   > u.H.F.M.H.P.L.L.H.L.J.@.o D P.i.U a D %.B.L.1.@   s L.S.P.S.S.L.S.L.L.L.H.H.L.H.H.H.",
"L.S.S.L.H.H.H.H.P.S.P.D.K.K.K.K.H.H.P.^   $ i.H.F.M.P.P.P.P.P.P.P.O.o r f &       o d N.+.    I P.P.S.P.P.D.P.S.H.H.H.H.Y.H.H.H.",
"H.P.D.L.H.H.S.L.S.P.P.L.K.K.K.K.H.J.J.x.&   / v.i.y.x.1.%.( I C a <                   ( P     $.P.L.L.S.D.P.S.L.H.J.H.H.H.Y.H.H.",
"H.H.J.H.H.D.L.S.P.P.S.S.K.K.G.K.J.J.H.H.a   k a $ $ $ @ o               O & $ #     O +.a   $ i.P.S.S.L.S.L.H.H.J.H.H.H.Y.H.H.H.",
"J.J.L.S.L.D.L.L.S.L.H.H.H.D.L.K.J.H.H.L.P   > e                 # & X Z 1.x.x.1./ D ` s.>   $ z.P.L.S.L.L.G.L.L.K.K.K.K.S.H.H.H.",
"V.V.V.M.M.M.G.G.V.H.V.V.V.V.G.G.V.V.F.G.#.X o 3           o 3 D 3.D X +.L.G.G.L.H.H.H.' o   = i.V.V.V.V.M.F.V.H.F.F.F.F.B.B.F.B.",
"g.g.8.r.t.g.t.g.g.g.f.f.m.......r.8.8.r.[ $   ; @     @ g ) ..g.m.m X T t.t.t.g.g.r.t.h     ; 7.t.g.g.g.g.g.t.r...w.w.w.w.w.w.w.",
"V.M.M.V.G.H.F.M.V.V.V.H.V.V.L.G.V.V.V.G.M.2   @ Z a v ;.G.L.G.V.M.D X ' L.G.F.F.G.G.v.>     ; x.V.V.V.V.F.H.G.L.G.H.F.F.M.F.S.S.",
"R.R.T.H.R.W.R.R.T.T.R.R.T.T.H.T.P.R.R.R.Y.q     P P.P.P.R.R.Y.H.L.D o W 1.5.N.P.R.R.n.:     & N.Q.E.R.R.W.R.R.P.P.P.R.R.P.R.R.R.",
"B.B.B.k.P.E.P.K.J.H.H.H.H.S.H.H.H.G.H.H.S.t     1 v.H.L.L.H.P.L.x.t   o o O 1 N :.G.n.0     # l.R.S.L.S.S.S.V.S.S.L.S.L.S.L.S.S.",
"F.F.F.M.M.R.H.K.J.L.J.J.H.H.H.Y.H.H.H.H.P.S       ^ S.x.i.;./ v > X             , :.H.V     o ;.P.P.H.H.S.L.S.L.S.P.S.S.H.H.L.S.",
"H.H.F.b.H.L.K.K.H.H.H.H.H.H.H.H.H.J.H.H.J.<.@     = 5 > & o                       J L.u.>   9 v.P.S.L.H.L.S.P.S.L.S.P.S.H.D.S.L.",
"F.G.G.b.K.R.K.K.H.H.H.H.H.H.H.H.H.J.S.J.D.S.v X                         . .     X _ H.G.y._ 9.T.P.P.H.H.H.L.S.L.H.H.H.H.L.D.H.H.",
"H.F.H.k.M.U.K.K.H.H.T.H.H.H.J.H.J.J.J.J.P.P.N.O.i             $ t 2 @ P #.O.~ S @.S.H.G.H.H.k.H.P.L.L.H.S.S.S.L.H.H.D.P.S.P.P.P.",
"H.H.F.k.M.K.H.K.K.P.H.H.L.H.H.L.J.J.S.J.L.S.H.P./ X       9 ! b 1 # X J B.P.L.H.H.H.H.H.H.F.f.S.L.S.S.H.P.H.H.H.L.H.H.H.P.H.J.S.",
"e.f.f.e.M.F.k.e.e.f.e.e.f.e.e.e.e.f.f.f.f.f.t.f.t.m < 7 G q.m.G         a q.k.h.f.j.f.f.e.f.e.B.M.f.g.g.g.r.g.t.t.t.t.t.q.f.g.f.",
"f.e.e.e.S.H.S.k.k.k.b.f.b.b.b.M.B.M.M.M.k.M.M.M.b.b.j.b.M.M.j.z         X ' M.f.g.g.f.t.e.e.f.S.H.M.k.k.k.k.j.b.k.b.M.B.M.M.M.m.",
"R.T.Y.T.T.H.H.P.T.T.T.J.J.R.R.R.E.E.Y.P.R.R.R.H.B.b.P.!.W.W.5.$         o ,.R.R.R.R.R.R.T.J.Y.T.H.H.L.R.R.T.H.T.R.E.E.R.R.P.R.R.",
"H.G.H.G.S.H.H.R.H.H.H.H.L.H.H.H.H.H.H.H.H.V.G.H.B.B.R.!.P.s.3             5 i.P.J.G.J.A.S.J.S.J.H.T.H.H.H.H.G.H.H.H.H.H.H.H.H.H.",
"G.H.G.J.H.S.H.H.H.S.S.H.F.H.H.H.S.G.G.H.V.H.G.H.J.J.R.P.v.a         o =     5 1.G.J.G.G.S.J.G.S.S.S.H.S.H.H.S.G.H.H.H.H.B.H.G.V.",
"F.H.J.S.S.H.S.S.S.S.H.H.G.J.G.J.H.H.H.H.H.H.B.G.F.G.R.n.k       O   = @.9     ; / n.H.A.G.H.J.S.S.S.H.S.S.S.G.S.G.J.J.A.H.H.H.H.",
"F.H.S.S.S.S.S.H.H.H.H.S.J.G.J.G.G.G.B.H.H.G.G.G.F.m.i.a     . a C   * s.s.r     X p ;.H.G.J.G.J.H.S.S.H.J.G.J.J.J.G.G.J.V.B.H.G.",
"S.S.H.F.S.S.S.S.S.S.H.G.G.S.G.G.G.B.b.B.G.G.G.G.M.K >     > ! B.C   $ y.H.v.a .     # b a.J.G.G.H.H.S.S.G.J.J.G.A.G.G.G.B.b.F.G.",
"S.S.H.J.S.S.S.H.S.S.J.n.J.G.J.G.G.n.b.b.H.H.H.u.l O   # b x.H.B.r   # 1.F.G.n.J %       : L v.G.H.J.S.S.G.J.n.G.G.J.G.G.b.k.B.G.",
"F.b.b.b.F.B.M.M.M.M.M.M.F.F.M.m.m.j.j.M.m.y.J >     9 _ k.m.h.0.<   $ 9.F.b.F.M.} t o       3 W >.M.b.b.M.V.M.F.M.M.m.m.j.j.M.j.",
"j.e.t.t.w.e.e.e.w.f.f.f.f.w.f.w.w.8.e.} x ;     $ x 0.t.......[ $   $ | f.w.t.f.f.0.E >         $ 8 H e.h.g.h.t.r.r.r.8.8.t.t...",
"L.J.T.J.H.F.H.F.M.H.F.M.F.b.F.K.M.O.s $       6 ' m.G.L.M.m.G.` .   $ s.K.H.P.L.H.H.R.x.f           X 7 J 9.b.M.F.V.S.L.L.V.V.M.",
"R.R.R.T.R.E.R.R.R.R.R.R.R.R.A.@.i @         v N.R.R.R.R.P.P.P.F     = n.R.R.R.E.R.R.E.E.P.U ;             = e A 1.P.R.R.R.R.R.R.",
"H.H.F.F.J.T.L.J.H.H.H.L.H.J > .         X C V.D.L.S.H.H.L.H.S.r     # u.P.H.H.H.H.H.G.G.G.G.i.D :               o f V.L.S.L.S.L.",
"H.H.F.b.F.T.L.J.L.P.H.H.K.b             C V.L.S.P.S.H.H.J.H.S.6     X +.P.H.H.H.P.L.H.H.G.V.m.L.c.S ;             % N.P.S.P.D.S.",
"H.H.H.b.F.T.L.L.S.P.J.P.P.!         o S S.D.P.L.P.H.H.H.H.H.S.9       P H.H.H.D.H.H.H.H.S.H.M.S.R.P.l.! C C V d r ( S.P.D.L.L.L.",
"H.F.F.b.F.R.J.J.H.P.J.P.P.i.=     O W S.L.L.S.P.S.H.P.H.H.P.D.f       C P.H.J.J.H.H.H.H.V.V.m.L.P.J.L.P.P.P.P.S.S.L.S.L.L.S.P.S.",
"V.V.H.m.H.P.H.H.P.P.S.P.J.P.W > 4 ( S.P.L.S.L.S.S.S.P.J.S.L.L.D       V H.J.J.J.H.H.H.H.V.V.m.S.P.H.S.K.S.H.H.H.P.L.P.L.S.L.S.P.",
"S.H.H.m.V.U.P.H.P.P.P.L.P.S.L.N.A.L.L.S.L.P.D.S.L.L.S.L.S.H.L.%.o     N L.H.H.H.H.S.H.H.S.V.m.S.P.P.P.V.P.L.D.H.L.S.D.S.P.P.P.S.",
"m.f.f.r.m.V.m.m.g.g.m.m.m.m.j.m.m.m.m.k.m.m.m.g.g.q.f.j.M.m.m.p.3     z g.g.g.g.f.f.g.g.g.f.r.H.m.m.g.m.m.m.m.m.m.m.m.m.m.m.m.m.",
"q.r.....m.m.r.m.g.j.j.j.g.g.g.g.g.g.g.g.g.g.f.r.t.m.m.g.j.g.j.m.} a l | g.g.t.t.f.f.r.g.r...r.M.m.m.m.g.m.m.g.m.g.g.g.g.r.m.r.m.",
"R.U.P.L.L.S.P.W.W.P.S.L.D.L.P.R.P.P.P.R.E.R.R.P.P.P.P.R.R.Y.Y.P.R.R.R.P.U.P.R.P.U.W.P.U.P.D.H.L.K.U.U.U.K.H.P.P.P.U.P.P.K.P.W.U.",
"S.D.L.S.S.L.P.P.P.S.L.S.V.L.S.P.P.H.H.H.H.L.H.H.V.V.W.R.P.P.P.J.P.P.H.H.H.L.L.P.H.P.P.D.L.H.K.H.V.P.P.D.H.L.V.H.H.L.P.L.H.H.H.D.",
"S.H.S.H.L.S.S.H.S.L.L.S.L.S.L.S.H.H.H.V.V.V.V.V.M.M.P.P.H.H.H.H.H.H.H.H.D.H.S.H.H.H.H.H.H.H.H.H.H.L.H.H.H.H.V.H.H.H.H.H.H.V.V.V.",
"S.H.L.S.S.S.L.H.L.S.S.S.V.V.L.S.G.H.G.G.H.H.S.S.B.j.L.P.L.P.H.H.H.L.H.H.H.H.H.H.H.H.H.H.H.H.H.H.H.H.H.H.H.V.H.H.H.H.H.V.H.H.V.H."
};
