/* XPM */
static char *resized_kita[] = {
/* columns rows colors chars-per-pixel */
"64 64 149 2 ",
"   c #010101",
".  c #060708",
"X  c #070809",
"o  c #0A0B0C",
"O  c #0D0F10",
"+  c #0F1112",
"@  c #131516",
"#  c #141718",
"$  c #16191B",
"%  c #191C1D",
"&  c #171E21",
"*  c #1B1F20",
"=  c #1E2224",
"-  c #1F282B",
";  c #222526",
":  c #252B2D",
">  c #282D2F",
",  c #262E32",
"<  c #282E30",
"1  c #2C3234",
"2  c #2C373B",
"3  c #303739",
"4  c #353B3D",
"5  c #2F3B40",
"6  c #353D41",
"7  c #354046",
"8  c #3A4245",
"9  c #3C464A",
"0  c #3D484D",
"q  c #3D4A50",
"w  c #444C4F",
"e  c #4B4D4E",
"r  c #434D51",
"t  c #4A5255",
"y  c #4A555A",
"u  c #4F5A5E",
"i  c #52585A",
"p  c #4D5C62",
"a  c #475E68",
"s  c #535F63",
"d  c #4D636D",
"f  c #556166",
"g  c #536369",
"h  c #59666B",
"j  c #5D6A6F",
"k  c #546972",
"l  c #5A6C74",
"z  c #636E72",
"x  c #647176",
"c  c #65747A",
"v  c #69757A",
"b  c #6C787D",
"n  c #5F7782",
"m  c #5E7883",
"M  c #677A82",
"N  c #6C7C82",
"B  c #707F84",
"V  c #62828F",
"C  c #68828D",
"Z  c #718187",
"A  c #798285",
"S  c #73858C",
"D  c #7A868A",
"F  c #76888F",
"G  c #6D8792",
"H  c #6D8995",
"J  c #758990",
"K  c #7A8C93",
"L  c #7A929C",
"P  c #7A97A2",
"I  c #7799A7",
"U  c #7D99A5",
"Y  c #838F92",
"T  c #83959C",
"R  c #85989F",
"E  c #8A989D",
"W  c #859BA4",
"Q  c #899DA5",
"!  c #839EA9",
"~  c #8A9FA8",
"^  c #8DA2AA",
"/  c #91A6AD",
"(  c #99A6AA",
")  c #81A3B1",
"_  c #8AA7B3",
"`  c #8FAFBE",
"'  c #91A7B0",
"]  c #96ADB5",
"[  c #99AFB8",
"{  c #9CB2BB",
"}  c #A0ACB0",
"|  c #A3B7BE",
" . c #A9B7BB",
".. c #84AEC1",
"X. c #8EB3C2",
"o. c #93B6C4",
"O. c #9FB7C0",
"+. c #92B8C7",
"@. c #9DB9C4",
"#. c #9BBDCA",
"$. c #A0B7C0",
"%. c #A3BBC5",
"&. c #A5BFC9",
"*. c #9AC0CF",
"=. c #96C5D9",
"-. c #9AC7DA",
";. c #9DC9DB",
":. c #A5C3CF",
">. c #AAC4CD",
",. c #B0C3CA",
"<. c #B5C8CF",
"1. c #BECBCF",
"2. c #A3C5D2",
"3. c #ADC7D0",
"4. c #AEC9D3",
"5. c #A0C7D9",
"6. c #A3CCDD",
"7. c #A9CFDE",
"8. c #B3CBD3",
"9. c #B9CDD4",
"0. c #B4CED8",
"q. c #A7D0DF",
"w. c #AAD0DF",
"e. c #B4D1DD",
"r. c #BBD4DE",
"t. c #A5CFE0",
"y. c #AACFE0",
"u. c #A7D1E1",
"i. c #ADD2E1",
"p. c #B2D5E3",
"a. c #BAD7E2",
"s. c #B7D8E5",
"d. c #BDDBE6",
"f. c #B7D9E8",
"g. c #BFDCE8",
"h. c #C4D8DF",
"j. c #C1DDE7",
"k. c #CADEE5",
"l. c #C2DEE9",
"z. c #C6E0EA",
"x. c #CBE3EB",
"c. c #D2E6ED",
"v. c #D5E9EE",
"b. c #D8EAEF",
"n. c #D1E7F0",
"m. c #D3E9F0",
"M. c #DAEBF0",
"N. c #E0EFF2",
"B. c #E5F1F3",
/* pixels */
"l.l.g.p.d.c.z.z.x.z.l.x.l.l.l.k.l.l.k.l.l.l.l.l.l.l.l.l.z.l.l.j.l.l.z.l.l.k.z.l.l.l.l.l.l.d.p.l.x.k.l.k.z.x.l.l.l.k.l.k.l.l.l.l.",
"7.6.6.6.s.d.e.w.w.w.p.p.p.p.i.p.p.p.p.p.p.p.p.p.7.6.6.p.p.p.p.p.p.p.i.7.i.w.y.i.y.y.y.7.y.5.6.d.p.p.p.i.p.p.p.p.i.p.p.p.p.p.p.p.",
"6.6.=.-.e.p.w.w.w.e.i.i.y.y.y.y.w.7.w.w.7.i.7.6.6.i.p.w.i.i.i.w.7.w.7.7.7.7.6.6.7.6.t.t.-.-.t.f.p.7.i.y.w.i.i.w.y.y.y.7.7.w.7.7.",
"x.x.x.l.z.z.x.c.b.x.l.z.x.k.c.c.x.x.x.c.b.c.x.x.c.x.x.c.x.c.x.x.c.b.c.x.c.c.x.x.x.n.x.n.x.k.l.l.x.c.c.c.z.z.z.z.x.c.c.x.x.c.c.b.",
"l.k.l.l.l.l.z.z.z.z.z.d.g.g.z.z.l.l.l.l.l.j.l.l.d.d.b.c.x.x.z.z.l.l.l.l.l.l.l.x.l.l.k.z.l.l.l.l.l.z.z.z.z.j.d.l.z.z.z.z.j.l.l.l.",
"l.l.l.g.l.l.l.l.j.z.z.l.g.l.l.l.l.l.d.d.j.d.d.d.s.i.x.z.z.j.z.j.l.l.l.l.l.g.d.l.l.l.l.l.l.d.l.l.l.l.l.l.z.l.l.j.j.j.l.z.d.d.j.d.",
"l.l.g.l.l.l.l.l.d.z.d.l.g.l.l.g.g.j.j.d.j.j.j.d.d.p.z.x.z.z.j.z.l.l.l.l.l.l.l.l.l.l.l.g.l.j.l.l.l.l.l.l.d.d.l.l.d.l.j.d.d.d.j.j.",
"l.g.g.l.l.l.l.g.j.d.g.j.d.g.g.g.d.l.l.j.l.j.j.d.p.p.x.z.z.j.j.l.l.l.l.l.l.l.l.l.l.l.l.l.g.l.l.l.l.j.j.j.j.l.d.d.j.d.d.l.l.l.j.j.",
"l.l.z.g.d.z.j.d.d.z.l.d.d.d.j.l.g.j.l.d.l.d.d.d.d.p.c.z.l.l.z.l.l.l.l.z.l.l.l.l.l.l.z.l.l.g.l.j.l.j.g.d.j.j.d.d.z.d.g.d.z.d.d.l.",
"l.l.g.j.z.d.j.z.z.d.d.d.g.z.d.l.l.l.g.l.j.l.l.f.s.i.z.x.z.z.z.l.k.l.l.z.z.l.l.l.z.z.l.l.l.l.l.g.d.l.l.d.l.j.d.d.z.d.j.l.j.l.d.l.",
"s.p.s.s.s.e.d.d.d.d.s.d.s.d.d.d.d.d.d.g.d.d.d.d.w.! %.p.p.d.d.p.p.d.f.f.s.p.p.s.p.d.f.d.p.d.d.p.s.d.d.d.d.s.d.d.d.d.d.d.d.d.d.d.",
"6.6.6.q.q.w.w.q.6.6.6.;.6.6.6.6.6.6.-.-.-.-.=.-...* # 0 I 6.6.;.;.6.6.-.;.;.6.6.t.t.;.6.6.6.7.6.p.7.6.6.6.6.6.6.6.6.;.6.;.;.;.;.",
"x.x.j.d.s.z.x.z.x.z.z.z.z.x.x.z.x.g.l.l.l.l.g.g.#.#     * $.x.x.g.g.l.x.x.c.x.x.k.z.x.x.x.d.f.d.x.x.c.x.z.z.z.z.x.k.x.l.d.l.l.l.",
"z.x.j.i.e.b.B.b.x.x.x.x.x.x.x.x.x.x.x.x.x.x.z.x.8.%       T n.x.z.l.x.x.x.x.x.x.l.x.x.l.l.d.y.g.M.M.c.x.x.x.x.x.x.x.x.x.x.x.x.x.",
"d.l.l.g.z.b.z.d.d.d.j.d.d.d.d.d.d.g.d.d.g.g.d.g.%.@       ~ l.g.g.d.g.d.j.l.l.d.g.g.g.d.l.l.d.x.c.j.d.d.d.d.d.g.g.g.d.d.g.g.g.g.",
"d.d.l.l.z.c.z.z.j.z.j.d.d.z.d.j.g.g.d.g.g.g.g.l.' o     = :.g.d.g.g.l.l.l.l.g.d.l.l.g.d.l.l.l.x.x.j.j.j.l.d.d.l.g.g.g.d.d.d.g.g.",
"d.j.d.p.d.x.z.l.z.d.d.j.d.z.g.j.d.g.g.g.g.g.g.g.~       c l.l.l.g.g.g.g.r.:.d.z.g.l.g.d.g.d.p.g.x.l.l.j.d.j.d.l.d.d.g.g.d.g.g.g.",
"d.d.d.p.y.d.l.l.j.d.d.d.d.d.d.d.g.g.d.g.g.s.g.l.K     # @.l.d.g.l.l.l.l.^ = 9 J 7.g.l.g.d.d.i.i.j.j.j.j.d.d.l.d.d.z.d.g.d.g.d.g.",
"l.d.d.p.i.z.l.l.d.d.d.d.d.d.s.s.s.s.g.d.g.g.g.g.N     6 d.d.d.d.g.g.d.l.~       u r.g.g.d.d.p.p.z.g.l.d.d.d.d.d.d.d.s.s.d.d.g.d.",
"d.d.d.i.z.x.d.d.d.d.s.p.s.d.d.d.d.d.s.d.f.g.g.g.c     N l.d.d.d.g.g.l.l.^ o     # %.g.d.d.d.i.x.z.d.d.d.s.s.p.s.s.d.d.d.d.f.g.p.",
"6.;.;.=.p.d.6.;.-.-.;.;.q.q.w.q.6.w.q.q.t.u.i.t.k   + _ i.t.i.p.i.i.i.i.U       # o.;.6.6.-.=.p.p.;.;.-.;.;.6.q.q.i.q.w.t.t.6.y.",
"6.7.6.-.6.w.w.6.6.q.q.q.w.i.i.i.w.s.i.w.i.s.i.i.g   , 2.t.;.y.i.i.i.q.u.U       7 6.6.q.y.-.-.7.i.w.;.u.q.q.w.q.i.i.q.p.p.i.i.p.",
"x.c.k.l.x.c.b.j.j.x.z.z.z.x.b.m.b.b.b.b.b.M.M.m.t   9 x.x.x.c.x.n.x.x.n.( o   . E x.x.c.x.l.x.c.b.x.d.x.z.z.z.x.x.b.b.b.M.b.b.M.",
"k.l.j.x.x.z.x.z.z.z.z.z.z.z.z.z.z.z.x.z.x.z.z.j.6   t x.x.x.z.x.z.z.z.n./     1 r.x.x.l.l.z.z.z.x.x.z.z.z.z.z.z.z.z.z.z.z.z.z.z.",
"l.l.l.l.l.l.l.l.l.l.l.l.l.l.z.z.z.l.l.l.l.l.z.e.1   w j.l.l.z.l.z.z.z.x.^ .   N x.z.g.g.g.l.l.z.%.c T >.l.l.z.l.z.z.g.z.l.z.g.z.",
"l.l.l.l.l.l.l.l.l.l.x.l.z.l.z.g.z.l.l.z.l.3.F L %   9 k.x.l.z.z.z.z.z.x.W   + { z.l.z.z.l.z.z.%.6     = M d.z.l.z.z.l.z.z.g.z.g.",
"z.z.l.l.l.l.l.l.l.z.l.l.z.z.z.l.g.z.z.z.>.r   o     3 h.z.l.x.l.z.z.z.z.Z   : 0.z.l.z.l.z.d.T <         . W z.l.z.z.d.j.z.l.d.g.",
"l.l.l.l.l.l.l.l.z.l.z.l.z.z.z.z.z.z.e.L 2           = >.x.l.l.l.z.d.z.z.c   9 j.z.z.z.j.@.u o             B x.l.z.d.z.z.z.l.l.l.",
"l.l.l.l.l.k.l.l.l.z.l.0.3.>.{ ^ J g 1               % 3.x.z.x.l.k.l.l.l.h   u z.x.d.{ h %             . < $.l.l.l.l.l.l.l.g.l.g.",
"g.l.g.d.p.f.d.g.g.l.$.2 * % + .               .     # >.l.l.j.j.l.l.l.d.w   h { N 9 @       + - q l F ~ &.j.l.l.j.d.d.d.d.d.d.d.",
"t.6.-.-.t.6.6.6.y.y.X.#               # 7 d V a     # X.6.6.;.6.t.6.6.5.2   @ o       + 6 m U -.;.i.i.i.7.7.6.6.;.;.;.-.;.;.;.=.",
"l.d.p.g.l.l.d.d.g.g.0.<           ; b %.d.g.g.M     % >.l.l.l.d.d.g.d.0.1         o u [ p.g.l.l.d.d.d.g.j.j.j.j.j.j.j.d.d.d.d.d.",
"c.x.x.z.x.b.b.c.b.x.x.z       # z <.c.n.c.c.n.z     < h.c.c.x.l.l.l.z.8.=       * T x.c.c.x.l.c.b.b.c.x.x.b.x.x.x.x.x.c.x.x.c.b.",
"d.d.d.i.x.b.z.z.l.l.z.3.s 2 u { l.l.l.l.l.l.l.t     9 r.l.l.l.l.l.l.z.>.%   f K O.g.l.d.d.p.p.c.x.z.z.l.l.g.l.g.g.g.g.g.l.l.l.l.",
"d.d.d.p.d.x.z.l.z.g.l.z.j.r.g.z.l.l.l.l.l.l.j.9     9 j.l.l.l.l.j.l.l.>.#   ^ z.l.d.d.d.d.d.i.j.x.z.z.l.l.z.l.l.l.l.l.l.l.l.l.l.",
"j.j.d.p.d.x.z.z.z.l.l.z.l.l.l.l.l.l.l.l.l.l.p.2     6 j.l.l.l.g.d.g.l.{ # O [ z.j.j.l.l.d.d.p.z.z.z.z.j.l.l.z.l.l.l.l.l.l.g.l.l.",
"d.d.d.s.j.b.l.z.l.g.l.l.g.l.z.l.g.l.l.l.z.z.3.*     6 d.d.d.l.l.g.g.z.^ X # 3.l.l.d.d.d.l.f.p.k.x.j.z.j.j.z.l.l.l.l.l.l.l.l.l.l.",
"d.d.j.w.d.x.z.l.z.z.l.z.z.g.z.g.l.l.l.z.z.z.{ O     6 d.l.g.l.d.g.g.z.W   * 2.z.g.j.l.d.g.g.y.k.x.z.z.z.z.l.l.j.l.l.l.l.l.l.l.l.",
"j.j.j.i.s.z.l.l.l.z.l.l.z.z.j.z.l.l.z.z.l.z.^       4 d.l.l.l.l.g.g.z.N   = >.z.l.l.l.l.l.g.y.f.j.j.j.j.l.z.j.z.l.l.l.l.l.l.z.l.",
"q.6.q.6.p.d.i.6.6.q.;.6.q.6.;.;.;.t.t.t.6.i.G       : :.p.i.i.i.u.i.i.g   # @.i.y.y.7.t.6.6.t.f.d.6.6.w.6.;.6.q.5.6.6.t.t.t.y.t.",
"6.6.;.;.g.z.d.i.p.p.p.w.p.p.i.s.f.f.p.p.p.g.Z       = >.d.p.p.i.i.i.i.0   # #.y.i.i.6.6.t.;.y.j.z.p.w.s.s.i.i.p.p.p.d.d.p.p.p.p.",
"b.x.x.z.x.x.z.x.c.c.x.z.z.x.n.b.c.n.c.k.n.m.K       ; 1.Y Z  .h.x.c.k.4   # ,.m.x.n.n.c.z.z.z.n.z.z.x.x.n.x.z.z.n.n.c.c.c.x.x.c.",
"d.d.z.l.l.g.z.x.l.l.l.g.z.z.j.z.l.l.l.l.g.l.W       % i o   O 4 / j.8.;   o ' z.l.l.l.l.j.j.j.j.d.x.x.z.l.d.l.l.l.l.l.l.l.l.l.l.",
"d.g.d.g.d.g.g.g.g.d.d.g.d.j.z.d.l.j.j.d.g.l.{ @                 : >.:.#   . ~ l.d.d.l.d.j.j.j.j.d.d.g.l.d.d.g.g.l.l.l.l.d.d.l.g.",
"d.g.g.g.l.g.d.l.g.g.g.g.g.l.l.g.l.l.j.j.l.g.p.9                 @ &.] o     ~ l.d.d.j.j.f.l.j.f.j.l.d.d.K K l.g.g.l.l.l.j.l.j.l.",
"f.g.l.l.d.g.g.g.g.g.l.l.l.g.g.g.d.d.d.d.l.l.0.t               # f d.^ X   . ! g.g.d.f.d.j.l.j.j.g.d.l.O.# = 3.z.g.g.g.g.d.d.l.d.",
"d.l.g.d.d.d.d.g.d.g.g.g.g.g.g.g.g.d.p.d.d.~ 6 .     + 2 h K ^ @.d.l.^ o     W g.g.d.d.d.j.l.d.j.g.g.z.Z     Z g.g.d.g.g.p.p.d.d.",
"g.g.g.d.g.g.l.d.d.d.g.g.g.g.l.g.g.p.6.W 0 O     : x | d.z.z.g.g.d.d.&.#     N g.d.d.f.l.j.f.f.j.g.g.g.c     9 d.l.g.g.g.p.i.d.d.",
"d.p.p.d.d.p.d.d.p.p.d.p.d.s.d.s.7.L 6 o     # k +.f.x.p.p.i.y.u.w.w.7.2     9 7.p.p.p.s.w.p.d.d.f.s.p.u     : 3.g.s.p.i.i.i.p.p.",
"7.-.6.5.;.;.6.-.-.7.7.6.6.6.+.H 6 o       : I -.=.;.i.t.-.=.;.;.6.6.6.k     o M 6.u.u.i.6.6.;.;.t.6.-.2     # +.6.;.;.;.;.6.6.=.",
"x.x.x.l.d.d.d.d.p.l.d.d.d.) 1 X         9 %.z.d.i.p.l.l.p.p.g.g.p.d.l.| #     o g [ k.x.x.x.x.d.d.2.M +     o W g.g.g.g.z.l.d.d.",
"c.c.c.c.b.b.c.c.c.c.c.c.b.E           9 9.c.x.x.x.c.c.c.x.z.z.x.x.x.x.x.v         # e A ( } / D i , X         b m.m.b.x.c.x.c.x.",
"g.d.d.d.z.c.z.z.l.j.l.l.z.[ +       : &.z.l.g.l.l.l.l.l.l.l.l.l.j.l.l.z.r.s               X .                 c x.j.z.z.j.z.l.l.",
"d.l.g.p.d.x.z.z.z.z.z.z.z.e.1     o ~ x.l.l.l.l.l.l.l.l.l.l.l.l.j.z.l.z.l.d.K 4 @                             E x.z.z.l.l.l.l.z.",
"l.l.d.p.d.x.x.z.z.z.z.z.z.z.T ; # j d.l.l.z.z.l.l.l.l.l.l.l.z.z.z.z.z.z.l.l.l.d.%.K s 4 = @ o             . s d.z.z.z.z.l.l.l.z.",
"l.g.d.p.d.x.z.z.z.l.z.l.l.z.l.>.&.j.l.z.z.z.z.l.l.l.l.l.l.k.l.z.l.j.z.j.l.l.l.l.l.l.d.d.3.%.U L v f 9 6 f ~ r.z.z.z.l.l.x.z.l.z.",
"j.d.d.i.d.x.z.z.z.z.l.l.x.l.x.z.z.z.z.z.z.j.l.l.g.l.z.z.l.x.l.l.l.l.l.z.l.l.l.z.l.g.g.g.g.g.p.x.x.z.j.j.z.z.z.z.l.z.z.l.z.l.z.l.",
"z.z.d.e.j.x.z.z.z.x.l.x.l.l.z.l.z.z.z.z.j.z.z.l.l.l.l.z.l.l.l.l.l.z.l.l.l.z.l.l.l.l.l.l.l.d.w.x.x.j.x.x.z.z.z.z.l.z.l.k.x.l.x.l.",
"q.q.6.6.d.d.w.e.w.w.p.p.i.p.p.p.p.i.e.w.p.i.p.w.7.6.6.i.p.p.p.w.i.p.w.i.w.w.7.7.i.y.6.7.q.6.6.d.d.i.i.w.p.p.p.w.i.p.p.p.p.p.p.w.",
"6.;.-.-.p.w.q.w.7.p.i.w.y.y.7.y.i.w.w.q.w.w.w.6.6.p.p.7.i.w.p.w.i.i.7.7.w.7.6.6.6.6.6.6.;.=.6.p.p.w.i.i.i.i.w.w.w.7.y.w.7.w.7.7.",
"c.x.x.l.z.z.x.b.c.x.l.z.x.k.c.x.x.z.x.b.b.c.c.x.x.l.x.c.x.c.x.c.c.b.c.x.x.c.x.x.x.c.c.c.x.z.z.z.x.c.c.c.z.j.z.z.x.c.x.x.k.x.b.c.",
"z.z.l.l.z.d.z.z.z.z.z.l.j.j.l.x.z.d.j.z.j.z.z.d.d.d.b.c.x.x.x.j.l.l.l.g.l.z.z.x.z.z.z.z.z.j.z.d.j.z.x.z.z.j.d.z.j.z.z.z.l.l.j.x.",
"l.l.j.l.d.z.z.j.j.z.z.d.l.l.l.l.z.z.j.d.d.d.d.d.p.p.x.x.z.j.l.l.l.l.l.l.l.g.j.j.l.z.z.z.z.d.d.z.z.j.j.j.z.z.d.z.l.l.l.l.l.d.d.d.",
"l.l.d.l.z.d.z.z.j.j.d.l.g.g.g.l.d.g.j.d.j.j.j.d.d.p.j.x.z.z.l.l.l.z.l.l.l.l.l.l.d.z.g.j.j.j.l.l.l.z.l.j.d.z.d.g.j.j.d.l.d.d.j.j."
};
