/* XPM */
static char *r_minami[] = {
/* columns rows colors chars-per-pixel */
"64 64 172 2 ",
"   c #010101",
".  c #080607",
"X  c #090708",
"o  c #0C0A0B",
"O  c #100D0F",
"+  c #120F11",
"@  c #151214",
"#  c #191417",
"$  c #1C1619",
"%  c #1D181B",
"&  c #211A1E",
"*  c #241D21",
"=  c #272024",
"-  c #2A2226",
";  c #2D2429",
":  c #30222A",
">  c #332A2F",
",  c #362C32",
"<  c #3B2D34",
"1  c #3B3137",
"2  c #3E3339",
"3  c #402F39",
"4  c #42353C",
"5  c #44393F",
"6  c #463A40",
"7  c #4B3D45",
"8  c #533947",
"9  c #553848",
"0  c #5B3F4E",
"q  c #4C4147",
"w  c #4F4149",
"e  c #52434B",
"r  c #59434F",
"t  c #554E51",
"y  c #5C4A54",
"u  c #5F5259",
"i  c #654657",
"p  c #604E57",
"a  c #604E58",
"s  c #6A485B",
"d  c #64525C",
"f  c #695661",
"g  c #6E5A65",
"h  c #705B67",
"j  c #785568",
"k  c #735D6A",
"l  c #795B6B",
"z  c #745566",
"x  c #7E5F70",
"c  c #75626C",
"v  c #78636F",
"b  c #7C6572",
"n  c #7C6A73",
"m  c #7F6F78",
"M  c #816977",
"N  c #826B78",
"B  c #8C6B7E",
"V  c #8A667A",
"C  c #91697F",
"Z  c #82727A",
"A  c #89727F",
"S  c #9A6E86",
"D  c #8C7380",
"F  c #8C7883",
"G  c #917584",
"H  c #917A87",
"J  c #967B8A",
"K  c #997E8D",
"L  c #9C7289",
"P  c #9E7E91",
"I  c #A1758D",
"U  c #A87491",
"Y  c #A37C91",
"T  c #AC7C96",
"R  c #B37E9B",
"E  c #94808A",
"W  c #99808D",
"Q  c #9E8392",
"!  c #A28495",
"~  c #A28C97",
"^  c #A68698",
"/  c #A98698",
"(  c #A68A99",
")  c #AA8C9D",
"_  c #B4819E",
"`  c #AF8FA0",
"'  c #B08FA3",
"]  c #BB8DA8",
"[  c #AE93A2",
"{  c #AF99A4",
"}  c #B392A5",
"|  c #B890A5",
" . c #B09AA4",
".. c #B696A8",
"X. c #B893A9",
"o. c #B59AA8",
"O. c #BB9BAD",
"+. c #BF9EB1",
"@. c #B9A0AD",
"#. c #C187A8",
"$. c #C58DAC",
"%. c #CA8DAF",
"&. c #C090AB",
"*. c #CA8EB0",
"=. c #DD8FBA",
"-. c #CB94B3",
";. c #C39CB2",
":. c #CB9AB5",
">. c #D094B5",
",. c #D697B9",
"<. c #DF96BE",
"1. c #DC99BE",
"2. c #D69BBB",
"3. c #E196BF",
"4. c #C4A2B5",
"5. c #C5A8B7",
"6. c #C7A6B8",
"7. c #CBA5BA",
"8. c #C6A8B9",
"9. c #CDAABD",
"0. c #D8A5BF",
"q. c #D0ABBF",
"w. c #DF97C0",
"e. c #DF99C0",
"r. c #E197C0",
"t. c #E19DC3",
"y. c #CFA7C0",
"u. c #CFA8C0",
"i. c #D7A7C2",
"p. c #DCA3C2",
"a. c #D2ACC2",
"s. c #D9ACC6",
"d. c #DCAEC8",
"f. c #CDB4C0",
"g. c #D3B3C4",
"h. c #D8B0C6",
"j. c #D5B9C7",
"k. c #DCB4CA",
"l. c #D7BAC9",
"z. c #DFB9CE",
"x. c #E2A3C6",
"c. c #E3A8C7",
"v. c #E4A6C8",
"b. c #E5ABCB",
"n. c #E8ADCC",
"m. c #E6B1CE",
"M. c #E8B2CF",
"N. c #E1BACF",
"B. c #E8AFD0",
"V. c #E7B3D1",
"C. c #E9B6D2",
"Z. c #E5BBD3",
"A. c #EABCD6",
"S. c #EBBED8",
"D. c #E4C3D4",
"F. c #EBC0D7",
"G. c #ECC3DA",
"H. c #E7C8D8",
"J. c #EECBDD",
"K. c #F0C6DD",
"L. c #F0CBDF",
"P. c #E5D0DA",
"I. c #EED1DF",
"U. c #F0D0DF",
"Y. c #EFCEE0",
"T. c #F0CFE1",
"R. c #EFD1E1",
"E. c #F1D3E2",
"W. c #F3D9E5",
"Q. c #F6DFE9",
"!. c #F8DBEA",
"~. c #F7E3EB",
/* pixels */
"F.S.S.m.A.R.F.J.F.J.F.J.F.F.F.J.F.J.F.F.F.F.F.F.F.F.F.F.H.F.F.F.F.J.F.F.F.F.F.F.F.Y.S.S.S.S.C.F.Y.F.F.J.F.F.J.F.F.J.H.F.F.F.F.J.",
"v.v.x.t.C.Z.m.n.c.n.m.m.m.n.n.n.B.n.C.n.m.m.m.n.n.x.c.n.m.n.n.n.n.n.n.v.n.n.v.n.v.b.v.v.v.t.t.S.C.n.n.n.n.m.m.n.n.n.n.n.C.n.n.n.",
"t.t.<.w.C.m.n.n.n.n.n.n.n.n.d.v.n.v.v.v.n.n.p.x.p.n.m.n.n.n.n.n.n.n.d.v.n.x.p.x.v.t.t.t.r.r.t.V.m.c.n.x.C.n.n.n.d.v.n.n.v.n.d.v.",
"E.T.J.F.F.F.J.E.I.J.F.F.J.F.Y.Y.Y.F.Y.T.R.R.U.I.J.J.J.I.J.R.J.L.R.R.Y.J.J.I.L.Y.T.E.E.E.T.F.F.Y.J.I.R.R.F.F.F.J.Y.Y.J.J.F.R.E.E.",
"F.Y.F.F.F.Y.Y.F.J.F.F.F.S.F.F.J.F.F.F.Y.J.F.F.F.Z.A.W.E.J.J.F.J.Y.F.F.F.F.F.Y.F.F.Y.F.Y.F.Y.F.F.F.J.J.J.F.F.F.F.F.Y.F.Y.F.F.F.F.",
"F.F.S.S.F.F.F.F.F.Y.F.F.F.F.F.F.F.F.F.F.S.A.A.A.C.C.L.L.F.F.J.F.S.Y.F.S.F.F.F.F.S.S.F.F.F.F.F.F.F.F.F.F.J.F.F.F.F.F.F.F.F.S.F.F.",
"F.F.Y.S.F.Y.F.F.F.F.S.F.F.F.F.F.F.F.F.S.F.F.F.S.Z.m.F.F.J.F.F.F.S.F.S.S.S.S.Y.S.Y.S.S.S.S.S.F.Y.J.F.F.F.F.F.F.S.F.S.F.F.F.F.F.F.",
"F.F.S.S.F.F.F.S.F.F.S.F.S.F.F.F.F.F.F.F.F.F.A.S.V.V.T.J.F.N b o.C.Y.Y.F.S.Y.F.S.F.F.S.Y.S.F.F.F.F.F.F.F.F.F.S.S.F.S.S.F.F.F.F.F.",
"Y.F.F.F.F.F.F.A.S.S.S.S.S.F.F.F.S.S.F.F.S.S.S.S.Z.m.U.J.D.4   o e a.F.F.F.Y.S.S.S.F.Y.S.F.F.F.F.F.F.S.S.S.S.S.F.F.F.S.S.F.F.F.S.",
"F.F.F.F.F.F.F.A.S.Y.S.S.S.S.F.F.F.S.F.F.F.F.F.F.A.n.F.F.F.d       b Y.Y.F.F.F.Y.Y.S.Y.S.F.F.F.F.F.F.F.F.F.S.A.S.F.F.F.S.F.F.F.F.",
"V.V.V.V.A.m.Z.A.C.S.C.S.A.A.Z.A.S.S.S.S.S.A.V.V.m.c.A.A.V.l       y B.C.Z.V.C.Z.B.S.d.;.p.A.A.m.V.S.V.A.A.V.Z.A.S.S.A.A.A.A.S.A.",
"v.v.x.v.t.n.n.v.e.v.p.t.x.t.v.t.t.t.r.t.t.r.r.r.<.x.A.A.x.S       V v.w.w.w.x.x.v.,.s + : i R x.n.v.x.x.x.v.x.x.v.t.t.v.t.w.t.w.",
"T.T.F.S.Z.F.Y.Y.J.F.F.F.F.F.J.J.Y.S.S.S.F.S.S.Z.C.F.J.F.S./     ; a.Y.T.T.T.J.u.J 3         * [ Y.J.Y.F.F.F.J.F.Y.F.F.Y.S.S.F.F.",
"F.F.S.B.C.E.~.E.E.E.R.J.T.T.J.L.Y.Y.Y.S.Y.Y.Y.F.F.Y.Y.Y.!. .X   4 a.8. .J c q *               c ~.W.E.E.Y.J.Y.Y.Y.Y.Y.F.Y.J.Y.Y.",
"S.F.F.S.J.E.J.A.A.F.F.A.A.S.A.F.S.S.K.S.S.S.S.S.z.s.i.;.o.c     + * @ X     X $ % $ $ o     . J E.F.A.A.F.F.S.Z.S.S.S.S.S.S.S.S.",
"S.F.F.F.J.E.F.F.F.F.S.S.F.F.A.K n D V n k y 7 6 < * & @ o         * 4 y b Q ' 7.a.a.a.X.b f ! D.E.F.F.F.F.A.S.F.S.S.S.C.S.S.S.S.",
"S.S.Z.C.C.Y.F.F.F.F.S.S.S.S.Z.7                       $ 7 e     $ +.S.S.S.S.Y.F.F.K.F.F.S.S.V.F.J.F.F.F.S.S.S.S.S.S.S.S.S.S.S.S.",
"A.S.Z.C.v.S.F.F.F.S.S.S.F.A.F.k               o ; y P 7.S.`     + ;.S.S.S.S.S.V.V.F.F.S.S.A.V.b.F.F.F.F.S.S.S.Z.S.S.S.S.C.S.C.S.",
"S.S.S.C.n.J.J.F.S.S.A.A.S.S.S.Y         X , k ` s.S.S.S.S.^       K S.S.S.S.Z.C.V.S.S.S.S.S.b.V.T.F.F.F.S.A.A.A.A.S.C.Z.S.C.S.C.",
"A.A.C.B.F.Y.S.S.A.V.C.C.C.Z.V.d.r o o 7 / k.S.S.S.S.S.S.S.^ .     a S.S.S.S.C.m.V.V.S.A.p./ b F +.k.S.S.C.C.C.Z.C.Z.A.S.S.S.C.S.",
"t.t.t.<.m.m.x.w.<.1.w.p.c.c.c.n.2.T R 0.b.n.n.w.v.v.n.n.b._ o     , 0.x.p.x.w.x.b.x.#.l - X     o < S <.t.t.p.x.d.n.p.p.v.p.b.b.",
"x.x.t.w.p.n.n.x.p.n.n.x.n.c.m.n.n.A.m.m.n.V.n.C.n.n.p.n.v.>.;     & -.v.n.n.n.-.I 0 &               + I n.x.n.n.n.B.B.n.C.b.v.B.",
"T.E.F.J.I.R.E.F.F.J.J.J.J.J.U.W.E.E.E.E.E.~.R.W.W.E.Y.T.T.L.m     5 H.E.D.{ g -                       c U.J.F.J.J.R.W.Q.W.W.W.Q.",
"F.F.F.J.J.F.J.J.J.F.F.J.F.F.F.J.J.I.J.J.J.F.J.F.F.J.E.J.J.L.z.n d [ o.N 1 o                           N L.F.J.F.F.J.F.Y.F.S.H.Y.",
"F.F.F.F.S.F.F.Y.F.S.S.F.F.F.L.( f ( h.F.F.F.F.S.V.C.F.T.J.Z.9.! g , O             @ % % & ; 6 6     o X.L.G.G.G.F.J.F.Y.S.S.S.S.",
"J.F.S.Y.Y.F.F.F.F.Y.S.Y.L.F.L.K   . < o.F.F.F.Y.S.n.u.[ N 7 %     + , e k n K [ [ 4.a.g.a.k.S.` X   - k.K.G.G.G.J.F.F.F.F.Y.F.F.",
"S.Y.F.Y.F.F.F.F.S.Y.Y.S.J.F.L.o.o     4 Z.Z.9.^ g 4 % o     # 7 A o.Z.F.L.L.T.Z.+.k.F.K.F.Y.Y. .o   e F.F.K.G.G.F.J.F.Y.Y.F.Y.S.",
"F.F.F.S.F.F.J.J.F.F.F.S.F.F.F.q.$     @ d 7 &           # g ;.A.F.T.F.F.F.F.k.a o ; g +.F.F.S.;.@   c L.F.F.G.G.F.F.F.F.F.F.S.S.",
"F.Y.F.F.F.L.F.F.Y.S.K.A.F.K.F.N.>                   o t o.K.L.G.F.J.F.J.F.o.7         = 6.K.K.6.@   F L.G.F.G.G.L.F.F.F.F.S.F.F.",
"S.S.A.V.V.A.A.F.A.S.A.A.F.A.A.C.6                   * ;.K.F.S.S.F.F.F.p.n %             B S.V.| o   / S.A.A.F.F.A.A.F.A.S.S.A.A.",
"x.x.t.t.x.x.x.x.v.v.t.x.x.t.3.t.i             #       < $.t.t.x.n.v.$.4               O U t.t.T . . I v.x.x.x.x.3.3.3.1.w.w.r.w.",
"S.V.V.A.A.F.F.A.A.A.A.F.F.F.F.K.b     - o o u X.-       < 7.K.A.V.S.)           % t v ( m.A.S.) . . / K.A.F.F.F.F.F.A.A.A.A.A.S.",
"R.Y.R.F.L.W.W.E.E.E.E.E.T.K.Y.Y.(   + [  .o.F.T.Q @       5 z.F.F.T.4.@     o t 8.I.E.E.E.L.K.!     o.E.T.T.T.T.K.J.T.T.E.T.E.E.",
"A.A.Z.n.J.W.F.J.F.F.F.F.S.S.S.K.)   $ 7.Y.Y.F.S.F.X.>       A K.F.S.Z.d O * G S.F.S.A.A.A.A.V.F   o ) L.Y.F.S.S.F.S.S.S.F.F.F.F.",
"A.A.A.C.A.J.J.F.F.F.K.F.S.K.S.K.)   $ 7.Y.S.S.Y.F.L.o.&     n K.K.F.F.a.g 8 N  .h.F.S.S.A.A.B.l   X [ K.F.F.F.F.F.F.Y.F.F.F.F.F.",
"F.S.A.m.F.J.F.J.K.F.F.F.F.S.S.K.` X + ] K.S.S.S.F.K.K.Q , 7 X.7.X.G f , o     O ; G A.F.A.A.V.v   X X.K.F.Y.F.Y.F.F.S.F.Y.S.S.Y.",
"S.S.A.m.F.E.F.F.F.F.F.Y.S.S.F.Y.) . . ` Y.S.S.:.N b k d 5 < ; $ o                 o K S.A.A.V.k   o o.K.F.K.F.F.F.S.S.S.S.Y.S.S.",
"F.A.A.n.A.E.J.F.J.F.F.F.Y.F.F.Y.)   . ( T.F.Y./                                     v F.A.A.B.f   # 6.K.F.F.F.F.Y.S.Y.S.S.F.S.Y.",
"S.H.F.m.V.F.F.F.F.F.F.Y.F.K.S.Y.) .   K K.F.F.4.@           . O     O 6 q 5 & # + = ` F.S.A.v.7   $ a.K.F.F.F.F.S.S.F.Y.S.S.S.Y.",
"v.v.v.w.A.A.n.t.n.v.t.t.v.t.t.t.L     k v.v.v.1.<       o 8 I N       4 :.p.-.$.R -.v.x.v.x.w.1   # &.b.x.x.n.x.v.t.t.t.v.v.v.t.",
"t.x.w.e.S.F.S.n.C.m.m.n.m.m.V.S.D     k V.V.A.V.! $ o 2 / m.V.S         B V.V.v.B.B.v.t.v.t.-.*   $ :.B.m.n.n.B.B.C.V.S.C.C.C.m.",
"Y.Y.Y.Y.Y.Y.F.J.R.E.R.F.F.R.E.W.A     c E.E.U.K.V.]  .J.W.W.!.m         A R.E.E.T.T.E.T.Y.T.8.+   $ g.Y.R.Y.H.Y.Y.R.E.E.R.Y.J.R.",
"F.F.F.F.S.S.Y.Y.F.F.F.F.F.F.F.F.c     d F.S.A.S.Z.S.E.~.J.a.) 2         $ q F k.F.F.F.S.S.F.`     % g.Y.F.H.F.F.F.F.F.J.F.F.F.S.",
"S.S.S.S.S.S.S.S.S.S.S.S.F.F.F.Y.f     6 A.F.A.F.9.( J b e - o                 e d.F.S.S.S.S.D     $ u.S.S.S.S.S.F.F.F.F.S.F.S.S.",
"S.S.S.S.S.S.S.S.S.S.S.S.S.S.S.K.a     1 N.S.A.F.g                             o  .K.S.S.S.S.k     $ a.S.S.S.S.S.F.F.S.S.F.F.F.F.",
"S.S.S.S.S.S.S.S.S.S.S.S.F.S.S.S.h     % a.F.A.K.N                             * :.K.S.S.S.S.e     $ a.S.S.S.S.S.S.S.S.S.S.A.F.F.",
"Z.S.S.S.C.S.S.S.S.S.F.S.S.S.S.S.k     @ :.S.A.S.) o         * +       * k k b ] S.S.S.S.S.C.4     & i.S.S.S.H.S.S.S.S.S.C.C.A.S.",
"S.S.S.S.S.S.S.S.S.S.S.S.S.F.S.S.t     o X.S.S.S.p.4     * J ;.*       7 A.S.S.S.S.C.C.S.S.d.; .   - s.S.S.S.S.S.S.S.S.C.C.B.Z.S.",
"C.B.B.Z.V.A.V.V.V.V.A.V.A.C.C.b.4     O ] n.m.n.v.;.b M $.B.-.$       p C.C.V.m.m.C.m.A.V.:.$     : p.C.V.A.A.C.C.C.C.m.b.n.m.n.",
"v.x.x.e.t.t.x.t.t.v.x.c.c.x.x.%.&     O R r.3.3.=.t.b.t.r.r.T O       k x.t.v.v.x.x.x.x.t.$.$     $ $.x.x.n.x.c.p.p.3.3.3.x.x.<.",
"Y.Y.Y.Y.S.S.S.V.V.S.A.V.N.C.F.q.%     . / S.F.V.b.m.S.G.V.V.^ .       W L.F.T.J.F.J.E.L.L.g.%     % :.F.S.A.V.A.m.G.G.F.F.F.A.C.",
"Y.R.Y.Y.E.W.E.E.T.E.E.E.U.W.I.q.$     . [ E.E.L.L.E.E.U.Y.T. .O       o.W.E.E.E.R.H.W.E.E.j.%     % g.E.E.E.E.E.E.E.U.U.E.U.U.I.",
"S.S.S.Z.F.E.Y.F.F.F.F.L.F.J.L.X.o     . / Y.F.F.K.S.F.J.F.Y.a.*     + 4.Y.S.S.F.g.q h o.F.i.$     $ 9.F.F.J.F.F.J.F.F.F.F.F.F.J.",
"S.S.S.d.A.E.F.Y.J.L.F.F.L.F.L.( .       ` Y.F.F.F.S.F.F.F.S.S.r     % a.F.Y.F.K.z.>   # G 7.%     + ;.K.F.F.F.Y.F.F.L.T.F.J.F.F.",
"S.S.S.C.S.Y.F.F.F.J.L.F.G.G.L.) .     X ` Y.J.F.K.F.F.F.F.F.Y.X.- O g D.F.F.F.F.F.h     o 7 @     . ) L.J.F.F.F.Y.F.F.F.J.F.F.J.",
"S.S.Z.C.Z.T.F.Y.F.F.F.K.G.G.L.6.#     @ :.Y.F.F.F.F.F.J.K.F.F.Y.6.o.N.F.F.S.Y.Y.F.7.2               ) T.F.Y.Y.F.T.F.Y.F.F.F.L.F.",
"F.S.A.n.A.Y.J.F.L.F.F.F.Y.Y.F.N.2     $ a.F.F.J.F.F.Y.F.F.Y.F.F.F.K.F.J.F.F.F.F.F.Y.a.k +           P Y.F.Y.Y.F.F.F.F.Y.F.F.J.F.",
"F.F.S.m.F.Y.J.F.J.L.F.H.F.F.F.Y.G     , z.F.F.F.F.S.F.F.F.F.F.F.F.F.F.F.F.J.Y.F.F.S.S.S. .2         D Y.Y.F.F.F.F.Y.F.F.J.F.J.F.",
"n.v.x.t.C.Z.n.n.n.n.n.n.n.n.B.B.i.j e R m.n.m.n.v.v.p.n.C.B.n.n.m.n.n.n.n.v.v.v.v.v.v.v.v.*.9     X U n.n.B.B.n.B.n.n.n.n.n.B.n.",
"t.w.<.1.m.n.v.n.x.n.n.n.p.n.v.v.n.v.n.B.n.n.p.t.p.B.B.n.d.n.n.n.b.n.x.x.x.v.x.x.v.v.t.v.t.r.w.D r F p.v.B.d.n.v.v.v.n.n.n.v.v.d.",
"R.Y.J.F.F.F.E.E.E.Y.F.F.Y.F.R.R.Y.J.F.E.W.E.T.Y.T.F.E.E.T.T.Y.E.E.E.Y.Y.Y.R.E.J.T.T.E.E.T.J.K.T.L.E.E.E.Y.S.F.Y.Y.E.R.Y.F.R.R.E.",
"F.Y.F.F.Y.F.F.T.F.Y.F.F.S.F.F.J.J.F.F.F.F.F.F.S.V.S.W.E.Y.Y.F.F.Y.F.S.S.F.F.F.J.T.F.F.F.F.F.F.F.F.J.L.F.F.F.F.F.F.F.J.F.F.F.F.J.",
"F.S.F.F.F.F.F.F.F.F.Y.S.F.F.F.F.F.F.S.S.F.S.Z.A.C.C.Y.F.F.F.F.Y.F.F.F.Y.S.Y.F.F.F.K.F.F.F.F.F.F.F.K.F.F.F.Y.F.F.F.F.F.F.F.Z.F.S.",
"F.S.S.Y.F.F.J.F.F.J.F.F.F.F.F.F.F.F.A.F.F.F.S.S.Z.C.F.J.Y.F.F.F.F.F.F.F.S.F.F.F.S.F.Y.F.F.F.F.J.F.F.F.F.F.F.F.F.F.F.F.S.F.F.S.F."
};
