/* XPM */
static char *r_nishi[] = {
/* columns rows colors chars-per-pixel */
"64 64 198 2 ",
"   c #010101",
".  c #080705",
"X  c #0A0906",
"o  c #0E0D09",
"O  c #100D07",
"+  c #110F0A",
"@  c #15120D",
"#  c #1B160C",
"$  c #1D190D",
"%  c #161512",
"&  c #191710",
"*  c #1D1A13",
"=  c #1E1D1A",
"-  c #251E0E",
";  c #211E15",
":  c #211F18",
">  c #252116",
",  c #2A2416",
"<  c #26221A",
"1  c #29251A",
"2  c #2F2A1D",
"3  c #322C1D",
"4  c #362D17",
"5  c #3E3213",
"6  c #2C2A24",
"7  c #332E22",
"8  c #3C3525",
"9  c #3B3628",
"0  c #3E392A",
"q  c #44381C",
"w  c #433C2B",
"e  c #473C21",
"r  c #433E31",
"t  c #55451E",
"y  c #49412C",
"u  c #4B4023",
"i  c #554621",
"p  c #4D4532",
"a  c #4E493C",
"s  c #49453B",
"d  c #524A35",
"f  c #584E34",
"g  c #574F3B",
"h  c #5C523B",
"j  c #5F5232",
"k  c #65552C",
"l  c #6A572A",
"z  c #61573C",
"x  c #63583E",
"c  c #695C3B",
"v  c #796636",
"b  c #776639",
"n  c #5F5742",
"m  c #5A5446",
"M  c #645A41",
"N  c #695E43",
"B  c #6D6246",
"V  c #6E644C",
"C  c #72674A",
"Z  c #75694B",
"A  c #7A6D4D",
"S  c #7E704D",
"D  c #766C52",
"F  c #796D50",
"G  c #7D7152",
"H  c #826B35",
"J  c #846B2B",
"K  c #887649",
"L  c #907B46",
"P  c #827552",
"I  c #867855",
"U  c #8A7C59",
"Y  c #867958",
"T  c #857B61",
"R  c #A2853F",
"E  c #BF9A3C",
"W  c #9C8448",
"Q  c #8C805F",
"!  c #98875E",
"~  c #9E8B5A",
"^  c #94845B",
"/  c #AD9149",
"(  c #AD9046",
")  c #BB9D53",
"_  c #B7984A",
"`  c #8C8165",
"'  c #948660",
"]  c #968965",
"[  c #9C8C64",
"{  c #978A69",
"}  c #A08E63",
"|  c #A29165",
" . c #AA9665",
".. c #A4926A",
"X. c #A9966B",
"o. c #AB9A6E",
"O. c #B19E6D",
"+. c #B29B64",
"@. c #A79973",
"#. c #AE9C71",
"$. c #B09E72",
"%. c #BBA46B",
"&. c #B5A273",
"*. c #BBA674",
"=. c #B3A37A",
"-. c #BCAA7A",
";. c #BBA878",
":. c #C9A54B",
">. c #DBB34F",
",. c #CEAE5B",
"<. c #C6A95C",
"1. c #D0AF5E",
"2. c #DCB95E",
"3. c #E6BC55",
"4. c #E7BE5A",
"5. c #E8BF5A",
"6. c #CDAF64",
"7. c #C0A769",
"8. c #CAB06F",
"9. c #D3B56B",
"0. c #DBBA68",
"q. c #C3AE7B",
"w. c #C0AC77",
"e. c #C7B27D",
"r. c #CCB67D",
"t. c #CEB676",
"y. c #DABD74",
"u. c #D4BC7D",
"i. c #D5BA75",
"p. c #E1BF65",
"a. c #E8C15D",
"s. c #E7C05B",
"d. c #DEC176",
"f. c #E6C165",
"g. c #E9C364",
"h. c #EAC66C",
"j. c #EBC86D",
"k. c #E6C169",
"l. c #E4C474",
"z. c #EAC770",
"x. c #EBCA74",
"c. c #ECCC7B",
"v. c #A59C80",
"b. c #BBAB83",
"n. c #C3AF80",
"m. c #C6B382",
"M. c #CAB582",
"N. c #CEBB89",
"B. c #D3BC84",
"V. c #D8BF82",
"C. c #D3BE89",
"Z. c #C8B990",
"A. c #D0BF91",
"S. c #DCC486",
"D. c #D5C18C",
"F. c #DBC48B",
"G. c #DFC88C",
"H. c #D7C087",
"J. c #CFC098",
"K. c #D9C591",
"L. c #DEC995",
"P. c #D4C49A",
"I. c #D8C798",
"U. c #EDCE83",
"Y. c #E5CB8E",
"T. c #E7CB89",
"R. c #EED085",
"E. c #EED38C",
"W. c #F0D285",
"Q. c #F1D48C",
"!. c #E5CD93",
"~. c #E9CF92",
"^. c #E1CD9A",
"/. c #E7D197",
"(. c #EFD493",
"). c #E6D19B",
"_. c #EED59A",
"`. c #EFD89F",
"'. c #F0D695",
"]. c #F2D896",
"[. c #F0D79A",
"{. c #F1D99C",
"}. c #CFC7AB",
"|. c #DCCDA5",
" X c #EBD6A1",
".X c #EEDAA4",
"XX c #ECDBAD",
"oX c #E3D2A7",
"OX c #F2DBA2",
"+X c #F3DFAA",
"@X c #F4E1AC",
"#X c #F7E0A5",
"$X c #F4E3B3",
"%X c #F8E5B3",
"&X c #F6E6B9",
"*X c #F6E8BC",
"=X c #F7EAC1",
"-X c #F9EDC7",
/* pixels */
"{._.(.c.'.@X{.{.OX{.OXOXOX{.{.{.OX{.{.{.{.{.{.{.{.{.'.{.{.{.{.{.{.{.{.{.{.`.{.'.{.{.{.].OX(.R.].+X].OXOX{.OXOX{.{.{.OX{.OX{.{.{.",
"j.j.g.g.U.W.x.c.x.x.c.c.c.c.c.c.c.c.c.c.x.c.c.c.j.j.j.z.U.c.c.x.c.c.x.z.x.j.x.h.z.j.j.p.z.5.5.Q.R.z.c.z.c.c.c.x.c.c.c.c.c.x.c.x.",
"p.p.3.4.U.c.j.j.x.x.c.x.x.x.j.z.c.z.z.z.z.z.j.g.j.c.c.z.x.x.x.x.x.x.j.j.h.j.g.g.j.p.j.p.p.3.5.Q.c.h.z.z.c.c.x.x.x.j.x.x.h.x.x.x.",
"%X$XOX{.{.{.+X$X$X#X`.{.OXOX+X@XOXOXOX@X%X%X+X+X+XOX+X$X@X@X@X@X$X$X@X+X@X@X@X@X+X$X$X$X+XOXOXOXOX%X@X%X{.{.OXOXOX$X+XOX{.@X$X%X",
"OX{.{.{.{.'.{.OX#X{.{.'._.(.{.OX{.{.{.{.OX].].].E.E.*X@XOXOX{.OXOX{.{.{.`.{.OX{.{.OXOX{.{.{.{.'.{.OX{.OX{.{.'.'.{.{.OX{.{.'.{.{.",
"{.{.'.'.{.{.{.'.'.{.{.'.{.{.{.{.{.{.(.(.(.(.(.(.E.U.+XOX{.{.{.{._.{.'._.{.(.`.{.{._.{.{.{.'.'.{.{.{.'.{.{.{.'.'.'.{.{.{.{.'.(.(.",
"{.{.'.'.'.{.{.{.`.'.(.'.'.'.'.'.'.'.'.'.'.{.[.(.E.c.{.OX{.{.{.{.{.{.{.{.OX_.{._.{.{.{.(._.{.'.{.{.{.'.{.'.'.'.'.'.'.'.'.'.'.'.'.",
"{.'.{.{.{.'.{.'.'.`.`.'.'.'.'.'.'.{.'.'.'.'.(.[.E.U.+XOX{.{.{.{.{.{.{.OX_.{.{.{.OX_.{.{.{.'.{.{.'.'.'.{.{.{.'.'.'.'.'.'.{.'.'.'.",
"`.`.`.'.'.'.'.'.'.`.`.(.(.'.'.`.].[.]._.].(.(.(.E.c.@X#X{.{.OX{.OX{..X{.{.OX_.OXOX{.OX_.{.{.'.'.'.'.'._.{.(.(.'.{.'.'.'.'.'.'.'.",
"`.'.`.`.`.'.`.`.'.'.`.'.'.'.'.'.].]._.].{.].[.Q.E.x.`.{.{.{.OX{._.OXOX{._.OXOXOX.XOXOX{.{.{.{.'.'.{.{.{._.{.'.'.'.'.`.'.'.'.'.`.",
"R.R.R.R.R.c.Q.Q.E.E.E.E.E.E.E.E.Q.Q.Q.E.(.Q.Q.E.R.x.'.E.R.R.R.R.R.R.U.U.U.U.E.E.E.E.E.U.W.W.W.c.U.W.E.E.E.E.E.E.Q.Q.Q.E.E.E.Q.'.",
"g.g.j.j.g.j.x.j.g.h.g.g.h.g.h.g.h.p.4.p.p.3.3.3.3.j.Q.E.g.a.g.g.4.j.p.4.4.g.g.g.h.g.) k l W 6.g.c.z.g.j.g.g.j.g.h.h.g.j.g.s.g.s.",
"@X@X'.Q.E.`.OXOXOX.X`.`.{.OX#X`.+X{._.OX{.{.{.W.U.`.OX`.E.(.'.OX{.'.{.+X$X%X$X_.B.P ,       < | OXOX+XOX{.{.{.OXOXOXOXOX(..X`.`.",
"{.`.'.R.R.&X-X&X@X+X#X#X@X@X#X@X+XOX+XOX+X+X+XOX.XOXOXOX$X$X+X+XOX{.OX+X^.b.T s ;             ; }.-X@X@X+XOXOX@X+X+X$XOX+X+XOXOX",
"(.'.`.'.OX&XOX'.Q.'.'.Q.'.'.'.'.'.{.'.'.'.].'.'.].{.{.{._._.Y.V.r.%.^ z 3 o                   % N.{.(.W.'.'.(.'.'.'.(.(.'.(.`.(.",
"'.Q.`..XOX$X{.'.'.'.'.'.r.} -.u.B.B.r.q.w.&.$.O.X.Y A M p w 7 ; ; O               o % ; ; * > D oX'.{.{.'.'.'.'.'.'.(.{.(.(.`.(.",
"'.'.(.E.E.+X`.`.`.'.'.'.X.o + * * * # @ o o             + ; ; <     < B A A A P | &.N.V.V.V.y.(.OX'.{.`.'.`.(.'.'.'._.(.(._._.(.",
"'.Q.E.R.j.(.`.'.'.'.(.`.e.#                 @ 8 z I z + d X.C.;.%   o N ~.].{.'.Q.'.'.'.(.'.c.x.{.'.'.'.(._.(.'.'.'.(.(._.(.(._.",
"'.(.(.R.c.`.`.'.'.'.'.'.Y.0         . < z ' e.!.'.]...    * [ T.7       U '.'.U.W.W.(.(.(.(.c.R.OX{.'.'.(.(.(.'.(.E.(.(.(.'._.'.",
"(.(.(.c.`.@X'.Q./.E.R.E.E. .; o ; z  .V.(.'.'.(.'.{.X.      < T.P       w E.W.R.U.(.(.(.(.(.c.OXOXE.(.E.E.R.R.(.E.(.E.(.E.E.(.(.",
"s.s.s.s.c.c.h.a.s.s.s.s.j.h.<./ 1.x.x.x.j.z.x.j.h.x.W       , d.l.k     % 1.a.g.z.j.4.g.a.s.3.c.c.g.s.s.s.s.g.j.h.x.h.x.z.j.j.j.",
"g.j.s.s.a.c.c.g.g.j.j.j.c.h.c.c.c.c.c.c.x.U.c.c.c.h.v       b c.x.6.#   o ) x.x.x.j.g.j.j.a.3.g.x.h.g.h.h.h.j.j.x.c.x.c.U.c.x.c.",
"$X$XOXOX#X&X$X].`.#XOX`.OX#X$X*X&X*X$X$X*X=X$X*X*X$XB     * J.@X@XK.=     b.$X*X$X@X+XXXZ.! j 8 M [ V..X#X`.`.#X@X*X$X*X*X$X*X=X",
"`.`.OXOXOX{.OX].{.{.{.#X'.OXOXOXOXOXOX{.OXOX{.{.{..Xa     w `.OXOXK.;   o ;.OX{.L.=.D 9 %           = Y ).#X`.{.`.OXOXOXOX_.OXOX",
"'.'.`.`.{.'.{.{.`.{.`.OX{.{.{.{.'.{.{.{.{.'.'.'.W.l.7     M {.{.#XD.*   o ^ ' h 7 o                     ' OXOX{.{.{.`.'.{.`.{.'.",
"`.`.{.{.{.'.{.{.{.OX{.OXOX{.{.{.{.{.OXOX{.{.'.'.'.8.#     G _.N.$.C o     o       .                     d `.OX{.OX{.`.OX{.OX{.{.",
"{.OX`.{.'.{.`.`.OXOXOX.X{.{.{.{.{.OXOX{.{.OX{.(.'.~       8 0 * .       @ p Z ' O.#.X.Q F F x p 9 o     g .X{.{.{.'.{.{.{.{.`.`.",
"{.{.{.`.`.{.{.'.{.{.{.F.Z [ C.!.q.=.&.$.[ Y A z y ;         @ 2 g 0     0 _.OXOX{.#XOXOXOXOX{.{.C.%     G {.{.{.{.`.{.{.OX{.'.'.",
"`.{.`.`.{.{.`.`.{.{.{.T.:   > h % . o                   < ] M.L.OXD     y _.`.`.{.{.{.{.{.{.{.#XD.*   o #.{.{.{.{.{.{.{.{.{.{.`.",
"'.'.'.R.R.R.'.'.W.'.'.E.w                     .         S '.'.{.'.x     w (.'.'.'.'.W.{.'.E.R.W.r.#   ; d.'.'.'.'.E.(.(.E.E.E.E.",
"h.h.s.s.h.h.h.j.z.j.p.h.l       .         O i J -     o ( g.a.h.j.k     q g.g.g.g.g.g.j.a.a.a.h.) O   e g.h.g.g.s.s.s.3.3.4.s.3.",
"'.R.R.E.'.'.Q.Q.'.'.'.]...    % M     o m b.~.K       2 Y.'.'.Q.W.C     2 S.'.E.'.'.'.E.R.E.'.'.O..   Z '.'.{.{.W.'.{.W.E.'.(.(.",
"$X$X+X`.@X*X&X$X@X+X$X$Xb.o   > A.[ B #.XX$XK.6       Z @X$X+X{.OXP     * K.OXOX@X$X$X@X@X#X{.%X@.    { %X@X$XOXOX@X+X+X+X+X$X$X",
"E.E.E.c.OX*X{.{.{.{.{.{.C.*   > F.{.{.{.{.!.g       @ ;.{.{.{.{.{...      #.{._.'.W.'.'.Q.E.R.@XT   o #.{.{.{.'.'.{._.{.{.'.'.{.",
"'.'.(.c.E.@XOX{.{.{.{.{._.8   * V.{.{.{.(.B         d (.{.'.{.(.{.r.#     h !.(.Y.S.r.X.-.S.c.{.n   % M.{.{.{.{.{.{.{.{._.{.{.{.",
"`.'.(.R.(.#XOX{.{.'.{.{.{.h   * C.OX{.^.D X       @ &.{.{.{.{.(.'.(.p       2 0 0 < @   o 2 k ;.9   ; D.{._.OX{.{.{.{.{.{.{.{.{.",
"E.'.(.c.{.$X{.{.{.{.{.OXOXP   @ M.OXn.h o         N '.'.'.(.{.{.{.'.&.@                       * o   w (.`.`.OX_.[.OXOXOXOX_.OX`.",
"'.'.'.c.E.@X{.{.{.{.OX{.OX#.  o $.^.9           > N.{.'.{.'._.{.'.'.'.| <                           c {.{.`.{.`.OX[.[.]._.OX`.OX",
"`.'.'.c.R.{.'.{.{.'.{.{.].e.+   ..{.p           I {.W.{.{.{.'.{.'.'.{.'.D.Y p 7 ; ; - ; o           ] #X{.'.{.{.].[.OXOXOXOX`.`.",
"j.h.g.g.R.(.x.g.g.j.g.g.j.<.#   v j.v         q 0.x.g.c.c.z.x.x.j.x.x.x.x.x.x.0.1.6.<.,._ W l .   O _ j.g.g.j.g.p.5.p.p.5.z.z.p.",
"g.g.s.h.(.`.E.c.c.c.c.c.c.9.*   f W.7.:     r t.R.c.E.E.c.U.c.c.c.c.c.U.R.U.U.p.U.U.p.x.g.g.H     7 p.c.R.U.c.U.W.U.E.E.U.U.U.U.",
"$X+XOX.X@XOX`.#X+X@X@XOXOXI.*   6 oX+X#.h T I.{.~.U.OX=X=X%X$X+X+X$X*X$X@X@X+X@X@X@X%X@X+X^.8     M +X@X@XOX].OX%X%X%X%X@X$X+X@X",
"`.(.`.`.{._..X@XOX{.{.'.].m.+   * M.{.{.'.'.{.{.E.E.$X*XOX'.{.{.'.'.{.'.{.'._.{.[.[.].].{.#.o     T @XOXOX[.[.[.`.[.[.].{.{.`._.",
"(.'.'.`._.(.{._.(._.(.(.].$.o   . O.].'.'.'.'.{.OX+X+XOX'.'.'.'.'.'.'.'.(.(._.(.(.[.[.[.(.z     . $.]._.(.(.Q.[.[.[.].[.(.'._.(.",
"(.(._.{.'.{._.'.(.{._._.{...      | {._.'.'.'.'.'.'.$XOX'.{.{.{.'.'.'.'.'.'.(._.[.(.Q.[.F.1     # M.{.'.[.Q._.`.[.[.].[.(.].{.'.",
"_._._._.{.(._.{._.{._.{.{.Y       P '.(.'.'.'.'.E.x.(.OX'.'.(.'._.'.'.{.'.'.(.(.[.[.[.[.q.@     ; C.{.{.[.[.`.[.[.(._.(.(.(.'.'.",
"(.[._.(.(.{.(.{.'.'.{.'.{.P       c U.E.(.'.'.W.E.j.E.{.{.'.(.(.'.'.'.W.(.(.(.(.Q.~.F.~.&.O .   ; B.(.(._.[.Q.[._.Q.(._.E.U.E.'.",
"(.[._._.(.(.{.~.'.'.'.'.{.A       y U.U.'.{._.{.E.U.+XOX'.{.{.'.'.'.'.'.'.E.T.B.U f 1 r r O .   ; B.{._.[.[._._.[.`._.(.U.U.E.{.",
"E.E.c.E.E.E.R.E.R.R.E.E.W.L       e l.U.c.c.c.c.j.W.OXW.c.z.9.6.%.+. .^ A x w =                 ; r.R.R.E.E.E.R.E.R.R.c.x.x.U.c.",
"z.5.p.5.4.p.p.5.5.p.z.h.h.( o     q g.x.p.3.>.:.E ( W v e q - - O o                             4 4.5.p.z.z.j.j.g.4.4.4.4.j.g.3.",
"+XOX+XOX(.(.'.E.Q.].].Q.W.u.<     3 ! K k q 4 - # .     o % : r y h B D m m r 6 = o             : V.W.Q.{.E.R.E.R.'.'.'.OX'.W.E.",
"@X%X@X@X%X*X%X@X@X@X@X@X@X$XF       .             % g ' $.C.I..X.XOXOX@X$XXX+X|.P.b.] x 8 o     1 |.%X@X@X@X+X@X$X$X$X+X$X+X$X$X",
"].{.(.E.OX@XOX{.{.{.{.{.{.OXF.Z 9           . 3 Y C.~.{.{.{.OX_.OX{.{.{.{.{.'.{.{.{.{.'.G.0     w ^.{.{.{.{.{.{.{._.{.{.'.{.{.{.",
"'.'.(.c.E.@XOXOX{.{.{.{.OX{.OXOX;.@       & I G.{.{.{.{.{.OX{.{..X{.{.{.{.{.{.OXOX{.{.'.'.} @ o A OX{.OX{.{.{.OXOXOXOX{.{.OX{.{.",
"{.].{.E.(.+XOXOX{.OXOX{.{.{.{.OX).d     ; #.OXOXOX{.{.{.{.{.OXOXOXOX{.{.{.{.{.OX{.{.'.{.{.(.%.-. XOX{.{.OXOX{.{.{.OXOX{.OX{.{.OX",
"_.Q.(.U.(.@XOXOXOXOXOXOXOXOX{.{.{.F.Y G M.OX{.OX{.{.{.{.{.{.OXOX_.{.{.{.{.{.OX{.{.'.{.{.'.Q.c.{.+XOXOX{.OXOXOX_.{.{.{.{.{.{.{.OX",
"'.'.'.R.Q.$XOX{.OXOX_.OXOXOX{.OX{.OXOXOXOX].{.{.{._.OXOX{.{.{._.{.{.{.{.{.{.OXOX'.'.`.'.'.E.c.`.#XOX`.OX`.OXOX.X{.{.OXOX_.{.{.OX",
"`.`.'.c.Q.$X{.{.OXOXOXOXOX_.{.{.OX{.OX'.].OXOX].{.{._.{.{.{.{.{.{.{.{.{.{.{.{._.`.`.`.'.`.(.c.`.OX{.OX#X{.OX`..X{.OXOXOXOX{.{.{.",
"j.j.g.a.W.Q.c.j.x.x.c.c.c.c.c.c.c.c.c.c.c.c.c.c.j.g.j.x.c.c.c.c.c.c.z.j.j.z.j.j.h.h.j.j.h.g.g.E.R.j.x.h.c.c.c.c.c.x.c.x.c.c.c.x.",
"h.s.s.s.c.c.j.j.j.x.c.c.z.z.z.z.c.x.h.h.h.c.h.a.g.c.U.x.x.x.c.x.z.x.z.j.z.j.g.g.h.g.h.j.s.3.g.E.c.j.c.h.c.c.j.j.z.z.x.x.z.z.z.z.",
"$X+X.X`.OX].@X$X$X@X'.{.OXOX@X@X#XOXOX$X&X@X@X@X+XOX+X$X@X@X@X+X$X$X+XOX+X+X+X+X$X$X&X@X@XOX{.{.+X$X$X@XOX'.OX#X@X@X@XOX{.+X$X$X",
"`.`.`.`.'.'.OXOX#X{.{.{.{.'.{.OX{.'.`.'.{.{.{.{.E.(.*X@XOXOXOXOXOXOX{.{.{.OXOX{.{.{.{.{.{.{.{.'.`.{.{.{.{.OX'.'.{.{.{.{.{.{.{.{.",
"'.`.'.'.'.OX`.'.'.`.{.'.'.{.{.{.`.`.'.'.'.(.(.E.E.R.+XOX{.{.{.{.{._._.{.{._._.{.'.`.{.'.{.'.'.{.{.{.{.{.OX'.'.`.'.{.{.{.{.(.'.(.",
"'.'.'.`.'.OX'.`.'.'.'.'.'.'.'.(.'.'.'.'.'.'.(.(.E.c.{.OX{.{.'.{.{.{.{.{.{.{.{.{.`.{.{.`.'.`.{.].{.{.].'.'.'.'.'.'.'.'.'.(.'.'.'."
};
