/* XPM */
static char *_aa70d25c31f4530da2d8b9c9019d6f4J8TOivrqq6kzpOeU[] = {
/* columns rows colors chars-per-pixel */
"47 63 128 2 ",
"   c #EDF1F4",
".  c #7A7876",
"X  c #BDBEBC",
"o  c #292726",
"O  c gray95",
"+  c #474849",
"@  c #373636",
"#  c #181715",
"$  c #A8A9A9",
"%  c #E4E4E4",
"&  c #D5D6D6",
"*  c #878888",
"=  c #999797",
"-  c #DCDCDA",
";  c #8D95A1",
":  c gray98",
">  c #F5F9FB",
",  c #585857",
"<  c #6B6964",
"1  c #C8CDD4",
"2  c #F1F4F5",
"3  c #D6DDE4",
"4  c #CDD4DB",
"5  c #8E8981",
"6  c #E8EDF1",
"7  c #ADB1B6",
"8  c #545861",
"9  c #DCE2E8",
"0  c gray79",
"q  c #040403",
"w  c #E4E9EE",
"e  c #838B93",
"r  c #F6F6F7",
"t  c gray91",
"y  c #B8BDC3",
"u  c #BAC3CA",
"i  c #6C727A",
"p  c #7E8187",
"a  c #524C48",
"s  c #F0F6F9",
"d  c gray99",
"f  c #F4F4F4",
"g  c #C3C4C4",
"h  c #EFEFEF",
"j  c gray93",
"k  c #686259",
"l  c gray70",
"z  c #5E626A",
"x  c #A8ADB4",
"c  c #E2E2E2",
"v  c #817E7A",
"b  c #727986",
"n  c #57534F",
"m  c #E1E6EA",
"M  c #D3D6DA",
"N  c #DADAD7",
"B  c #26221E",
"V  c #4B4C50",
"C  c #36332F",
"Z  c #E7ECEE",
"A  c #737170",
"S  c #48505E",
"D  c #F7F8F9",
"F  c #302B28",
"G  c gray92",
"H  c #3E3C39",
"J  c #2B2D2F",
"K  c #45413E",
"L  c #363A40",
"P  c #706B67",
"I  c #CECECD",
"U  c #CFD0D2",
"Y  c #E8EBEE",
"T  c #9C9385",
"R  c #948D7F",
"E  c #A29F96",
"W  c #EBECE6",
"Q  c #D2D2CD",
"!  c #BDBAB4",
"~  c #F0F4F4",
"^  c #A8A39E",
"/  c #B4B9C0",
"(  c #DCDFE1",
")  c #EFF2F4",
"_  c #CDCAC4",
"`  c #FAFCFC",
"'  c #FDFDFD",
"]  c #D4D9DE",
"[  c #C7C4BD",
"{  c #181A1C",
"}  c #3E4148",
"|  c #13110F",
" . c #F3F6F7",
".. c gray80",
"X. c #EBEFF1",
"o. c #EBEBE9",
"O. c #121315",
"+. c #FBFBFB",
"@. c #1D1B17",
"#. c #E8EAEB",
"$. c #212326",
"%. c #2F3237",
"&. c #0E0C0A",
"*. c gray12",
"=. c white",
"-. c #6A6C6E",
";. c #0F0F0E",
":. c #0B0C0C",
">. c #FEFEFE",
",. c #FDFEFE",
"<. c #FEFFFF",
"1. c #FEFEFF",
"2. c #DFE5E8",
"3. c gray75",
"4. c #D7D7D7",
"5. c #979DAB",
"6. c #E6E6E6",
"7. c #9C9FA0",
"8. c #E0E1DF",
"9. c #5F6060",
"0. c #8D8E8D",
"q. c #605A4F",
"w. c gray97",
"e. c #E9E9E9",
"r. c #D3D4D4",
"t. c #D0D4D6",
"y. c #B8B5B0",
"u. c None",
/* pixels */
"u.f t % % % % % % % % % % % % % % % % % % % % % % % % % % % % % % % % % % % % % 8.N U 0 I j u.",
"d O O O O O O O O O O O O O O O O O O O O O O O O O O O O O O O O O O O O O O h j 6.- I g 3.: ",
"d : +.+.+.+.+.+.+.+.+.+.+.+.+.+.+.+.+.+.+.+.+.+.+.+.+.+.+.+.+.+.+.+.+.+.+.+.+.: r h c r.g X h ",
"' =.=.=.=.=.=.=.=.=.=.=.=.=.=.=.=.=.=.=.=.=.=.=.=.=.=.=.=.=.=.=.=.=.=.=.=.=.=.=.+.O 6.& 0 X h ",
">.=.=.=.=.=.=.=.=.=.=.=.=.=.=.=.=.=.=.=.=.=.=.=.=.=.=.=.=.=.=.=.=.=.=.=.=.=.=.=.+.O t 4.0 3.h ",
">.=.=.=.=.=.=.=.=.=.=.=.=.=.=.=.=.=.=.=.=.=.=.=.=.=.=.=.=.=.=.=.=.=.=.=.=.=.=.=.+.f t 4.0 3.h ",
">.=.=.=.=.=.=.=.=.=.=.=.=.=.=.=.=.=.=.=.=.=.=.=.=.=.=.=.=.=.=.=.=.=.=.=.=.=.=.=.+.f t 4.0 3.h ",
">.=.=.=.=.=.=.=.=.=.=.=.=.=.=.=.=.=.=.=.=.=.=.=.=.=.=.=.=.=.=.=.=.=.=.=.=.=.=.=.+.f t 4.0 3.h ",
">.=.=.=.=.=.=.=.=.=.=.=.=.=.=.=.=.=.=.=.=.=.=.=.=.=.=.=.=.=.=.=.=.=.=.=.=.=.=.=.+.f t 4.0 3.h ",
">.=.=.=.=.=.=.=.=.=.=.=.=.=.=.=.=.=.=.=.=.=.=.=.=.=.=.=.=.=.=.=.=.=.=.=.=.=.=.=.+.f t 4.0 3.h ",
">.=.=.=.=.=.=.=.=.=.=.=.=.=.=.=.=.=.=.=.=.=.=.=.=.=.=.=.=.=.=.=.=.=.=.=.=.=.=.=.+.f t 4.0 3.h ",
">.=.=.=.=.=.=.=.=.=.=.=.=.=.=.=.=.=.=.=.=.=.=.=.=.=.=.=.=.=.=.=.=.=.=.=.=.=.=.=.+.f t 4.0 3.h ",
">.=.=.=.=.=.=.=.=.=.=.=.=.=.=.=.=.=.=.=.=.=.=.=.>.' +.d r j ( 0 X c D >.=.=.=.=.+.f t 4.0 3.h ",
">.=.=.=.=.=.=.=.=.=.=.=.=.=.=.=.=.=.=.=.' : D O e.N l = v 9.H @.q { * Y d =.=.=.+.f t 4.0 3.h ",
">.=.=.=.=.=.=.=.=.=.=.=.=.=.=.=.' +.w.h 4.l 0.A + @ C J o *.O.;.| &.q J y +.=.=.+.f t 4.0 3.h ",
">.=.=.=.=.=.=.=.=.=.=.,.: h G G 4.$ v , @ o J H H J @.O.# # *.@.# # | q :.x f =.+.f t 4.0 3.h ",
">.=.=.=.=.=.=.,.D O G U l 0.V H B # &.O.*.o o *.J @ @ # @.B F F F B # O.q :.p 2 +.f t 4.0 3.h ",
">.=.=.=.' h h & $ A H O.q q ;.*.J + , 9.-.-.i . A -.9.H &.# { B B B # | { | q i 2 f t 4.0 3.h ",
">.=.=.=.O v n H q q $.+ A e ^ / r.w ) ) 2 D > >   _ C L ;.o $.# O.# # # O.# ;.q M f t 4.0 3.h ",
">.=.=.=.w.= , . * $ 1 #.2 ` ,.<.=.=.=.=.=.=.=.> ( 5 B + A * A a @ o # O.:.q q q M f t 4.0 3.h ",
">.=.=.=.=.d o.Z ` ,.=.=.=.=.=.=.=.=.=.=.=.=.r y.P B { 5.> 2 #.r.X $ 7.= * p . 7 r f t 4.0 3.h ",
">.=.=.=.=.=.=.=.=.=.=.=.=.=.=.D #.d =.=.=.D ! K K # :.z   =.=.1.,.d +.+.D r f 1.+.f t 4.0 3.h ",
">.=.=.=.=.=.=.=.=.=.=.=.=.=.=.% 9.3 =.=.>.G a 8 C ;.:.q 7 =.=.=.=.=.=.=.=.=.=.=.+.f t 4.0 3.h ",
">.=.=.=.=.=.=.=.=.=.=.=.=.=.>.N o e D =. .T @ n &.q q J 1 =.=.=.=.=.=.=.=.=.=.=.+.f t 4.0 3.h ",
">.=.=.=.=.=.=.=.=.=.=.=.=.=.d & %.8 ( D ..o -.@.:.J p u > ,.=.=.=.=.=.=.=.=.=.=.+.f t 4.0 3.h ",
">.=.=.=.=.=.=.=.=.=.=.=.=.=.1.Q F S 3 s A :.8 F ;.; w 3.0.7.9 >.=.=.=.=.=.=.=.=.+.f t 4.0 3.h ",
">.=.=.=.=.=.=.=.=.=.=.=.=.=.=.- K L y . @ . H + :.} z 9.K O.%.e Y >.=.=.=.=.=.=.+.f t 4.0 3.h ",
">.=.=.=.=.=.+.w.' =.=.=.=.=.=.W n *.J &.L R C V q q %.= n q :.:.L 1 ' =.=.=.=.=.+.f t 4.0 3.h ",
">.=.=.=.=.d 0 V ; ) =.=.=.=.,.W n $.;.&.{ @ 9.o ;.*.L 9.-.n | :.q J U >.=.=.=.=.+.f t 4.0 3.h ",
">.=.=.=.=.,.N H J } ] =.=.d s [ n F ;.q O.J , | p M ] 0 v + n &.;.:.{ / +.=.=.=.+.f t 4.0 3.h ",
">.=.=.=.=.<.O v C @.S 6 2 I A *.V o o i x P C # y 2 X.  % v @ C &.O.q O.1 >.=.=.+.f t 4.0 3.h ",
">.=.=.=.=.=.d $ J K O.+ V o %.+ a O.; w Y ^ o *.4 ~ ) X.s [ q.K B @.| q L ) =.=.+.f t 4.0 3.h ",
">.=.=.=.=.=.>.N H V B q $.i u X.v &.5.w Z 7.o J w 2 ~   ~ - . @ C F | :.q ( =.=.+.f t 4.0 3.h ",
">.=.=.=.=.=.=.f . C @ { 7 > 6 > R &.; w 6 v B }   2 ~ X.s _ k K F B | &.q ] =.=.+.f t 4.0 3.h ",
">.=.=.=.=.=.=.d X @ L :.e s X.s 7.:.p m Z -.# z  .~ ~ ) c A F K @.@.;.q } f =.=.+.f t 4.0 3.h ",
">.=.=.=.=.=.=.<.W k o | + 3 ~ s $ &.b m w 9.# e s ~ ) ~ ^ B V B @.| q J 3 >.=.=.+.f t 4.0 3.h ",
">.=.=.=.=.=.=.=.+.E *.{ O.x > s y.# i 9 m q.# x 2 ) ~ 8.< L n | | q @ M ' =.=.=.+.f t 4.0 3.h ",
">.=.=.=.=.=.=.=.<.4.a F q b   s X @.i 9 2.a @.1 ) ) s ! C 9.@.| q { 1 >.=.=.=.=.+.f t 4.0 3.h ",
">.=.=.=.=.=.=.=.=.f 5 C :.} 4 > g B S 3 ( K $.] ) ) Z 5 @ a q | q p : =.=.=.=.=.+.f t 4.0 3.h ",
">.=.=.=.=.=.=.=.=.,.l H B O.7 > & H L 4 t.C %.2.X.  Q n , # ;.q + Z <.=.=.=.=.=.+.f t 4.0 3.h ",
">.=.=.=.=.=.=.=.=.=.4.a o q ; s 6.+ } 4 3.F + w X.Z E C + q q { 1 =.=.=.=.=.=.=.+.f t 4.0 3.h ",
">.=.=.=.=.=.=.=.=.=.O A F &.z 9 Z + %.4 l B 8 6 X.N a K @.:.:.e : 1.=.=.=.=.=.=.+.f t 4.0 3.h ",
">.=.=.=.=.=.=.=.=.=.' $ @ *.{ /   n o 4 x *.b 6 G T J a q q } 6 =.=.=.=.=.=.=.=.+.f t 4.0 3.h ",
">.=.=.=.=.=.=.=.=.=.<.- , o q e   9.o 1 $ @.; 6 N C 8 o q :.7.1.=.=.=.=.=.=.=.=.+.f t 4.0 3.h ",
">.=.=.=.=.=.=.=.=.=.=.: v C &.S 9 9.{ 1 ^ { y   R $., q q + X.=.=.=.=.=.=.=.=.=.+.f t 4.0 3.h ",
">.=.=.=.=.=.=.=.=.=.=.,.5 @ *.O.. n ;.e < @.5.U K z B q { / <.=.=.=.=.=.=.=.=.=.+.f t 4.0 3.h ",
">.=.=.=.=.=.=.=.=.=.>.- a } J q o C | *.@ @.$.+ , K &.&.8 > =.=.=.=.=.=.=.=.=.=.+.f t 4.0 3.h ",
">.=.=.=.=.=.=.=.=.=.d = # A K :.O.{ @.O.O.@.;.{ o # | # y =.=.=.=.=.=.=.=.=.=.=.+.f t 4.0 3.h ",
">.=.=.=.=.=.=.=.=.=.>.$ &.J B q :.&.q :.&.:.:.O.| &.q + D =.=.=.=.=.=.=.=.=.=.=.+.f t 4.0 3.h ",
">.=.=.=.=.=.=.=.=.=.=.: ..$ $ $ 7 7 x $ 7.* p v A < 0.6.=.=.=.=.=.=.=.=.=.=.=.=.+.f t 4.0 3.h ",
">.=.=.=.=.=.=.=.=.=.=.=.=.=.=.=.>.=.=.=.=.=.<.<.=.=.=.=.=.=.=.=.=.=.=.=.=.=.=.=.+.f t 4.0 3.h ",
">.=.=.=.=.=.=.=.=.=.=.=.=.=.=.=.=.=.=.=.=.=.=.=.=.=.=.=.=.=.=.=.=.=.=.=.=.=.=.=.+.f t 4.0 3.h ",
">.=.=.=.=.=.=.=.=.=.=.=.=.=.=.=.=.=.=.=.=.=.=.=.=.=.=.=.=.=.=.=.=.=.=.=.=.=.=.=.+.f t 4.0 3.h ",
">.=.=.=.=.=.=.=.=.=.=.=.=.=.=.=.=.=.=.=.=.=.=.=.=.=.=.=.=.=.=.=.=.=.=.=.=.=.=.=.+.f t 4.0 3.h ",
">.=.=.=.=.=.=.=.=.=.=.=.=.=.=.=.=.=.=.=.=.=.=.=.=.=.=.=.=.=.=.=.=.=.=.=.=.=.=.=.+.f t 4.0 3.h ",
">.=.=.=.=.=.=.=.=.=.=.=.=.=.=.=.=.=.=.=.=.=.=.=.=.=.=.=.=.=.=.=.=.=.=.=.=.=.=.=.+.f t 4.0 3.h ",
">.=.=.=.=.=.=.=.=.=.=.=.=.=.=.=.=.=.=.=.=.=.=.=.=.=.=.=.=.=.=.=.=.=.=.=.=.=.=.=.+.f t 4.0 3.h ",
">.=.=.=.=.=.=.=.=.=.=.=.=.=.=.=.=.=.=.=.=.=.=.=.=.=.=.=.=.=.=.=.=.=.=.=.=.=.=.=.+.f t 4.0 3.h ",
">.=.=.=.=.=.=.=.=.=.=.=.=.=.=.=.=.=.=.=.=.=.=.=.=.=.=.=.=.=.=.=.=.=.=.=.=.=.=.=.+.O t & 0 3.h ",
"' ' >.>.>.>.>.>.>.>.>.>.>.>.>.>.>.>.>.>.>.>.>.>.>.>.>.>.>.>.>.>.>.>.>.>.>.>.>.' : O 6.& 0 X h ",
"+.w.w.w.w.w.w.w.w.w.w.w.w.w.w.w.w.w.w.w.w.w.w.w.w.w.w.w.w.w.w.w.w.w.w.w.w.w.w.w.O G 8.r.g X h ",
"d j j j j j j j j j j j j j j j j j j j j j j j j j j j j j j j j j j j j j j j e.c 4...g g ' ",
"u.D j G G G G G G G G G G G G G G G G G G G G G G G G G G G G G G G G G G G G G e.6.c - - r u."
};
