/* XPM */
static char *b7b3521e73bf4ec2b30855b0ea22b860YgAtmRDiAKLXuldr[] = {
/* columns rows colors chars-per-pixel */
"47 63 128 2 ",
"   c gray79",
".  c #E4E4E4",
"X  c #FBFBFB",
"o  c #555558",
"O  c #383634",
"+  c #4A4848",
"@  c gray75",
"#  c #F3FAFD",
"$  c #D4DCE3",
"%  c #272626",
"&  c #A5A8AB",
"*  c #9A9A99",
"=  c #E7EDF0",
"-  c #7A7772",
";  c gray95",
":  c #656668",
">  c #DDE1E6",
",  c #181715",
"<  c #AAB1B9",
"1  c #D7D7D7",
"2  c #E2EAEE",
"3  c #DBDDDE",
"4  c #D6DADC",
"5  c #020202",
"6  c #C4C3C2",
"7  c #ECF1F1",
"8  c #C7CCD3",
"9  c #9299A3",
"0  c #CCD2D7",
"q  c #BBC3CC",
"w  c #7A818A",
"e  c gray91",
"r  c #747A82",
"t  c #9DA2A8",
"y  c #ECEDEC",
"u  c #F0F6F7",
"i  c #FAFCFD",
"p  c #E1E6EA",
"a  c #EDF5F9",
"s  c #F6F6F6",
"d  c #83888F",
"f  c #B6BDC4",
"g  c #413B36",
"h  c #EEEEEE",
"j  c #484C51",
"k  c #96928C",
"l  c #868B92",
"z  c gray99",
"x  c #5D5A58",
"c  c #D0D7DE",
"v  c #5D6269",
"b  c #45423F",
"n  c #F4F7F8",
"m  c #EAF1F4",
"M  c #E9EFF2",
"N  c #66625F",
"B  c #ECF2F4",
"V  c #D1D1D2",
"C  c #555351",
"Z  c #514E49",
"A  c #3F4448",
"S  c #EEF4F5",
"D  c #282A2E",
"F  c #35312E",
"G  c #8B9097",
"H  c #393A3E",
"J  c #B1B4B5",
"K  c #EBECEF",
"L  c #B6B9BB",
"P  c #4C5159",
"I  c #6F6B66",
"U  c #302D29",
"Y  c #A3A29F",
"T  c #F8FAFB",
"R  c #848280",
"E  c #666A71",
"W  c #242220",
"Q  c #C1BFBB",
"!  c #FCFDFE",
"~  c #D1D2D5",
"^  c #6F747C",
"/  c #737270",
"(  c #ADAEAE",
")  c #C5C1B8",
"_  c #141310",
"`  c #817D78",
"'  c #E7E7E6",
"]  c #B1B6BB",
"[  c #D2D4D5",
"{  c #F0F2F4",
"}  c #C2C5C8",
"|  c #1E1C19",
" . c #202122",
".. c #938C86",
"X. c #1B1D20",
"o. c #090B0D",
"O. c #0C0B09",
"+. c white",
"@. c #0F1217",
"#. c #FEFEFE",
"$. c #F4F4F4",
"%. c gray92",
"&. c #FCFEFE",
"*. c #FEFFFF",
"=. c #FEFEFF",
"-. c #F3F3F3",
";. c #505052",
":. c #CDCFD0",
">. c #303336",
",. c #D2CFC8",
"<. c gray97",
"1. c #D8D8D7",
"2. c gray93",
"3. c #BCB9B7",
"4. c #3F3E3E",
"5. c #C7C9C2",
"6. c #C4CAD0",
"7. c #C6C6C5",
"8. c #CCCCCB",
"9. c #1F1F1E",
"0. c #90908F",
"q. c #F4F5F6",
"w. c #F5F6F6",
"e. c #E8EAEC",
"r. c #0F0E0D",
"t. c #EFEFEF",
"y. c #12100E",
"u. c None",
/* pixels */
"u.$.e . . . . . . . . . . . . . . . . . . . . . . . . . . . . . . . . . . . . . > 1.V 7.:.2.u.",
"z ; ; ; ; ; ; ; ; ; ; ; ; ; ; ; ; ; ; ; ; ; ; ; ; ; ; ; ; ; ; ; ; ; ; ; ; ; ; t.2.' 3 8.6 @ X ",
"z X X X X X X X X X X X X X X X X X X X X X X X X X X X X X X X X X X X X X X X s 2.. [ 7.@ t.",
"! +.+.+.+.+.+.+.+.+.+.+.+.+.+.+.+.+.+.+.+.+.+.+.+.+.+.+.+.+.+.+.+.+.+.+.+.+.+.+.X -.' 1   @ t.",
"#.+.+.+.+.+.+.+.+.+.+.+.+.+.+.+.+.+.+.+.+.+.+.+.+.+.+.+.+.+.+.+.+.+.+.+.+.+.+.+.X -.e 1   @ t.",
"#.+.+.+.+.+.+.+.+.+.+.+.+.+.+.+.+.+.+.+.+.+.+.+.+.+.+.+.+.+.+.+.+.+.+.+.+.+.+.+.X $.e 1   @ t.",
"#.+.+.+.+.+.+.+.+.+.+.+.+.+.+.+.+.+.+.+.+.+.+.+.+.+.+.+.+.+.+.+.+.+.+.+.+.+.+.+.X $.e 1   @ t.",
"#.+.+.+.+.+.+.+.+.+.+.+.+.+.+.+.+.+.+.+.+.+.w.k ] *.+.+.+.+.+.+.+.+.+.+.+.+.+.+.X $.e 1   @ t.",
"#.+.+.+.+.+.+.+.+.+.+.+.+.+.+.+.+.+.+.+.+.! Q U 4.> +.+.+.+.+.+.+.+.+.+.+.+.+.+.X $.e 1   @ t.",
"#.+.+.+.+.+.+.+.+.+.+.+.+.+.+.+.+.+.+.+.#.3 g % r.j { +.+.+.+.+.+.+.+.+.+.+.+.+.X $.e 1   @ t.",
"#.+.+.+.+.+.+.+.+.+.+.+.+.+.+.+.+.+.+.+.h x % x _ 5 d #.+.+.+.+.+.+.+.+.+.+.+.+.X $.e 1   @ t.",
"#.+.+.+.+.+.+.+.+.+.+.+.+.+.+.+.+.+.+.T .._ o x y.O. .c +.+.+.+.+.+.+.+.+.+.+.+.X $.e 1   @ t.",
"#.+.+.+.+.+.+.+.+.+.+.+.+.+.+.+.+.+.+.3 F , x + o.r.o.l ! +.+.+.+.+.+.+.+.+.+.+.X $.e 1   @ t.",
"#.+.+.+.+.+.+.+.+.+.+.+.+.+.+.+.+.+.+.t.3.U A + O._ 5 ;.= +.+.+.+.+.+.+.+.+.+.+.X $.e 1   @ t.",
"#.+.+.+.+.+.+.+.+.+.+.+.+.+.+.+.+.+.+.+.t.g >.C r., 5 % 4 +.+.+.+.+.+.+.+.+.+.+.X $.e 1   @ t.",
"#.+.+.+.+.+.+.+.+.+.+.+.+.+.+.+.+.+.+.+.K g O b O.O.O. .:.*.+.+.+.+.+.+.+.+.+.+.X $.e 1   @ t.",
"#.+.+.+.+.+.+.+.+.+.+.+.+.+.+.+.+.+.+.+.e.4.O W r.j r * K +.+.+.+.+.+.+.+.+.+.+.X $.e 1   @ t.",
"#.+.+.+.+.+.+.+.+.+.+.+.+.+.+.+.+.+.+.+.. O O _ H $ M ~ t.+.+.+.+.+.+.+.+.+.+.+.X $.e 1   @ t.",
"#.+.+.+.+.+.+.+.+.+.+.+.+.+.+.+.+.+.+.+.3 U >.y.j 0 ` % w T +.+.+.+.+.+.+.+.+.+.X $.e 1   @ t.",
"#.+.+.+.+.+.+.+.+.+.+.+.+.+.+.+.+.+.+.#.V % 4.| % + , 5 o.L &.+.+.+.+.+.+.+.+.+.X $.e 1   @ t.",
"#.+.+.+.+.+.+.+.+.+.+.+.+.+.+.+.+.+.+.z 5., j F 5 o. ., 5 v <.+.+.+.+.+.+.+.+.+.X $.e 1   @ t.",
"#.+.+.+.+.+.+.+.+.+.+.+.+.+.+.+.+.+.+.T ) r.o F y., O.5 o.l ! +.+.+.+.+.+.+.+.+.X $.e 1   @ t.",
"#.+.+.+.+.+.+.+.+.+.+.+.+.+.+.+.+.=.<.. ` 9.C _ 5 5 o.A 9 4 ~ <.+.+.+.+.+.+.+.+.X $.e 1   @ t.",
"#.+.+.+.+.+.+.+.+.+.+.+.+.+.+.<.e.3 ( o O b W 5 D E 9 c 4 I  .G T +.+.+.+.+.+.+.X $.e 1   @ t.",
"#.+.+.+.+.+.+.+.+.+.+.+.+.+.; Y N ;.+ | >.W >.9 f > # 8.C 9.r.o.} #.+.+.+.+.+.+.X $.e 1   @ t.",
"#.+.+.+.+.+.+.+.+.+.+.+.+.+.t.Y : x ^ - 4.y.w a B = Y U U 4.y.5 t z +.+.+.+.+.+.X $.e 1   @ t.",
"#.+.+.+.+.+.+.+.+.+.+.+.+.+.#.<.{ %.p 8 b % q B 4 - y. .x W 5 o e.+.+.+.+.+.+.+.X $.e 1   @ t.",
"#.+.+.+.+.+.+.+.+.$.8.~ q.+.+.+.+.+.X 8.F P p @ N H F H C O.5 ^ > z +.+.+.+.+.+.X $.e 1   @ t.",
"#.+.+.+.+.+.+.+.! @ b b j t { +.+.+.T L % b ` C ^ 8 ..% ;._ o.| D E e =.+.+.+.+.X $.e 1   @ t.",
"#.+.+.+.+.+.+.+.+.e 0.N O W A 6.i +.n Y W A w < 8 * O A ;._ y.r.y.5 D 4 =.+.+.+.X $.e 1   @ t.",
"#.+.+.+.+.+.+.+.+.#.T > & x W X.< S = ` D < f 0.4., 4.Z | D C b _ _ 5 D e +.+.+.X $.e 1   @ t.",
"#.+.+.+.+.#.#.#.+.+.+.+.n [ / %  .t 0 N | j C o Z W >., j / b v x , r.5 v T +.+.X $.e 1   @ t.",
"#.+.+.+.z . L 3 <.#.+.+.#.B 4 I W X.>.H ;.w & q 7.x O.A $ T k W : Z r.O.5 < ! +.X $.e 1   @ t.",
"#.+.+.+.X 3.% H E 0 T z n 1 & x >._ O.9 2 B B = @ O >.q # M 7 R % v g r.5 @.p +.X $.e 1   @ t.",
"#.+.+.+.#.. O U % , w q * C U A r N  .9 M = 2 3 I r.r a = m B -.- >.N W r.5 r X X $.e 1   @ t.",
"#.+.+.+.+.<./ , C _ 5 , , H w 8 a [ 4.H c m = J % 9.H r d 6.7 a ' Z ;.O r.O., K X $.e 1   @ t.",
"#.+.+.+.+.z @ | + g 5 5 v $ # u = m R X.G c J x 9.W 5 5 5 v a a ; C + 4._ r.r.> X $.e 1   @ t.",
"#.+.+.+.+.+.y Z D o O.o.9 # 7 m = p t % + o W D o + A j A l M # ) O ;.O , 5 >.{ X $.e 1   @ t.",
"#.+.+.+.+.+.T Y 9.Z % 5 j c u :.( 0.Z  .+ | 5 P f c p e.= M = w.- D x W r.5 9 ! X $.e 1   @ t.",
"#.+.+.+.+.+.#.. b >.+ O.o.t # Y ;.% A o H b 5 r i > J t c u u ,.g A + _ 5 @.p +.X $.e 1   @ t.",
"#.+.+.+.+.+.+.X 0. .;.W 5 v p 4 k r f 1.b O r.A 9 / F o.E a i k 9.o U O.5 ^ z +.X $.e 1   @ t.",
"#.+.+.+.+.+.+.*.1 O H g 5 X.f u m a = :.b H , 5 5 y._ 5 A 2 e Z >.C , 5 o.> *.+.X $.e 1   @ t.",
"#.+.+.+.+.+.+.+.<.-  .+ , 5 d 2 4 ( R b D b r.X.+ ^ G * J m Y W o O O.5 r X +.+.X $.e 1   @ t.",
"#.+.+.+.+.+.+.+.#.7.U b g 5 j 0 w + g , U F o.G $ p S u # [ + >.x | 5 @.> +.+.+.X $.e 1   @ t.",
"#.+.+.+.+.+.+.+.+.$.N D b O.@.< < - w * H % , q i S S 7 u k 9.o O O.5 G i +.+.+.X $.e 1   @ t.",
"#.+.+.+.+.+.+.+.+.#.Q F H % 5 w 2 3 > 3 g 9.% c u { 7 u 1 Z >.o , 5 D e.+.+.+.+.X $.e 1   @ t.",
"#.+.+.+.+.+.+.+.+.+.u I D O 5 A c B p p Z | >.> u { 7 { * W o O 5 5 ( ! +.+.+.+.X $.e 1   @ t.",
"#.+.+.+.+.+.+.+.+.+.#.6 F >., o.] S ( / O | H 2 { 7 S   b H C _ 5 A 7 +.+.+.+.+.X $.e 1   @ t.",
"#.+.+.+.+.+.+.+.+.+.+.n I 9., 5 f z e N  .W >.$ S 7 e.- % x % 5 5 L #.+.+.+.+.+.X $.e 1   @ t.",
"#.+.+.+.+.+.+.+.+.+.+.+.. x O.o B +.#.; * 4.% + 9 c ( % + + O.5 o B +.+.+.+.+.+.X $.e 1   @ t.",
"#.+.+.+.+.+.+.+.+.+.+.+.*.y [ t.+.+.+.+.T V - H >.;.F 4.x | 5 o.} #.+.+.+.+.+.+.X $.e 1   @ t.",
"#.+.+.+.+.+.+.+.+.+.+.+.+.+.+.+.+.+.+.+.+.#.y * g | D ^ g O.5 v n +.+.+.+.+.+.+.X $.e 1   @ t.",
"#.+.+.+.+.+.+.+.+.+.+.+.+.+.+.+.+.+.+.+.+.+.+.<.Q F , ;.U 5 , :.+.+.+.+.+.+.+.+.X $.e 1   @ t.",
"#.+.+.+.+.+.+.+.+.+.+.+.+.+.+.+.+.+.+.+.+.+.+.+.! . I ,  .9.& i +.+.+.+.+.+.+.+.X $.e 1   @ t.",
"#.+.+.+.+.+.+.+.+.+.+.+.+.+.+.+.+.+.+.+.+.+.+.+.+.z t.* C & <.+.+.+.+.+.+.+.+.+.X $.e 1   @ t.",
"#.+.+.+.+.+.+.+.+.+.+.+.+.+.+.+.+.+.+.+.+.+.+.+.+.+.+.+.+.+.+.+.+.+.+.+.+.+.+.+.X $.e 1   @ t.",
"#.+.+.+.+.+.+.+.+.+.+.+.+.+.+.+.+.+.+.+.+.+.+.+.+.+.+.+.+.+.+.+.+.+.+.+.+.+.+.+.X $.e 1   @ t.",
"#.+.+.+.+.+.+.+.+.+.+.+.+.+.+.+.+.+.+.+.+.+.+.+.+.+.+.+.+.+.+.+.+.+.+.+.+.+.+.+.X $.e 1   @ t.",
"#.+.+.+.+.+.+.+.+.+.+.+.+.+.+.+.+.+.+.+.+.+.+.+.+.+.+.+.+.+.+.+.+.+.+.+.+.+.+.+.X -.' 1   @ t.",
"! ! #.#.#.#.#.#.#.#.#.#.#.#.#.#.#.#.#.#.#.#.#.#.#.#.#.#.#.#.#.#.#.#.#.#.#.#.#.! T ; ' [   @ t.",
"X <.<.<.<.<.<.<.<.<.<.<.<.<.<.<.<.<.<.<.<.<.<.<.<.<.<.<.<.<.<.<.<.<.<.<.<.<.<.<.-.%.> V 7.@ t.",
"z 2.2.2.2.2.2.2.2.2.2.2.2.2.2.2.2.2.2.2.2.2.2.2.2.2.2.2.2.2.2.2.2.2.2.2.2.2.2.y e . 1 8.6 7.! ",
"u.<.y %.%.%.%.%.%.%.%.%.%.%.%.%.%.%.%.%.%.%.%.%.%.%.%.%.%.%.%.%.%.%.%.%.%.%.%.%.e . . 3 3 s u."
};
