/* XPM */
static char *d832f295810a431be710373f1b91844bnl5jReyHolWZZPZD[] = {
/* columns rows colors chars-per-pixel */
"47 63 128 2 ",
"   c gray79",
".  c #454648",
"X  c #565555",
"o  c #757573",
"O  c gray75",
"+  c #393738",
"@  c #E4E4E4",
"#  c #686869",
"$  c gray77",
"%  c gray95",
"&  c gray98",
"*  c #181715",
"=  c #A4A7AA",
"-  c #DBDCDB",
";  c #828488",
":  c #D8DCE0",
">  c #D7D7D7",
",  c #292827",
"<  c #F6F6F6",
"1  c gray91",
"2  c #DCE1E7",
"3  c gray93",
"4  c gray99",
"5  c #787A7E",
"6  c #959AA3",
"7  c #E4E6E9",
"8  c #E0E1E1",
"9  c #EFEFEF",
"0  c #070705",
"q  c #CAC4BA",
"w  c #EFEAE6",
"e  c #F2F5F6",
"r  c #E5EAEB",
"t  c #EDEFF1",
"y  c #F8F7F6",
"u  c #F6F8F9",
"i  c #F8F9F9",
"p  c #76736F",
"a  c #68645F",
"s  c #97938C",
"d  c #F5F4EE",
"f  c #393C42",
"g  c #B6B9BB",
"h  c #D2D2D2",
"j  c #EFF3F4",
"k  c #D1D9E0",
"l  c #CDD2D8",
"z  c #A6ACB2",
"x  c #93989A",
"c  c #5E6266",
"v  c #D7D3CB",
"b  c #504C48",
"n  c #35322D",
"m  c #413D38",
"M  c #F0EEE8",
"N  c #25221E",
"B  c #6A6D70",
"V  c #E1E3E6",
"C  c #4A4B4F",
"Z  c #E9EDEF",
"A  c #CBC7C1",
"S  c #F9FAFA",
"D  c #9DA0A3",
"F  c #888C8F",
"G  c #E3DDD2",
"H  c #45403F",
"J  c #B6B5B6",
"K  c #BFC4C8",
"L  c #F8F9FA",
"P  c #D3D5D9",
"I  c #A9A59D",
"U  c #575B60",
"Y  c #131211",
"T  c #312E2B",
"R  c #F9F8F7",
"E  c #B2B5BA",
"W  c gray97",
"Q  c #ACB0B3",
"!  c #716D6A",
"~  c #202326",
"^  c #B7BDC2",
"/  c #F7F5F3",
"(  c #8B8F95",
")  c #EAE7E6",
"_  c #E1E5E7",
"`  c #CDCDCE",
"'  c #D4D4D3",
"]  c #EDEEEE",
"[  c #E8EBEC",
"{  c #FAFCFC",
"}  c #201D1A",
"|  c #5F5C58",
" . c #303133",
".. c #FDFCFA",
"X. c #FBFBFB",
"o. c #505258",
"O. c #0E0D0C",
"+. c white",
"@. c #1B1C1D",
"#. c #605E60",
"$. c #FEFEFE",
"%. c #F4F4F4",
"&. c gray92",
"*. c #FDFEFE",
"=. c #F4F5F7",
"-. c #B1ABA4",
";. c #FEFEFF",
":. c #F3F3F3",
">. c #7F8080",
",. c #4F4F4E",
"<. c #D8D7D0",
"1. c #DFDAD4",
"2. c #404243",
"3. c #C0C5CC",
"4. c #CBCBC6",
"5. c #6D737C",
"6. c #3E3E3D",
"7. c #B8B7B6",
"8. c #BBBCBA",
"9. c #F7F6F4",
"0. c #E3E1E0",
"q. c #E9E9E8",
"w. c #292F33",
"e. c #FCFBFC",
"r. c #FDFDFD",
"t. c #212320",
"y. c #C3BCB7",
"u. c None",
/* pixels */
"u.%.1 @ @ @ @ @ @ @ @ @ @ @ @ @ @ @ @ @ @ @ @ @ @ @ @ @ @ @ @ @ @ @ @ @ @ @ @ @ 8 > h   ` 3 u.",
"4 % % % % % % % % % % % % % % % % % % % % % % % % % % % % % % % % % % % % % % 9 3 7 - ` $ O & ",
"4 & X.X.X.X.X.X.X.X.X.X.X.X.X.X.X.X.X.X.X.X.X.X.X.X.X.X.X.X.X.X.X.X.X.X.X.X.X.& < ] 0.' $ O 9 ",
"r.+.+.+.+.+.+.+.+.+.+.+.+.+.+.+.+.+.+.+.+.+.+.+.+.+.+.+.+.+.+.+.+.+.+.+.+.+.+.+.X.:.7 >   O 9 ",
"$.+.+.+.+.+.+.+.+.+.+.+.+.+.+.+.+.+.+.+.+.+.+.+.+.+.+.+.+.+.+.+.+.+.+.+.+.+.+.+.X.:.1 >   O 9 ",
"$.+.+.+.+.+.+.+.+.+.+.+.+.+.+.+.+.+.+.+.+.+.+.+.+.+.+.+.+.+.+.+.+.+.+.+.+.+.+.+.X.%.1 >   O 9 ",
"$.+.+.+.+.+.+.+.+.+.+.+.+.+.+.+.+.+.+.+.+.+.+.+.+.+.+.+.+.+.+.+.+.+.+.+.+.+.+.+.X.%.1 >   O 9 ",
"$.+.+.+.+.+.+.+.+.+.+.+.+.+.+.+.+.+.+.+.+.+.+.+.+.+.+.+.+.+.+.+.+.+.+.+.+.+.+.+.X.%.1 >   O 9 ",
"$.+.+.+.+.+.+.+.+.+.+.+.+.+.+.+.+.+.+.+.+.+.+.+.+.+.+.+.+.+.+.+.+.+.+.+.+.+.+.+.X.%.1 >   O 9 ",
"$.+.+.+.+.+.+.+.+.+.+.+.+.+.+.+.+.+.+.+.+.+.$.+.+.+.+.+.+.+.+.+.+.+.+.+.+.+.+.+.X.%.1 >   O 9 ",
"$.+.+.+.+.+.+.+.+.+.+.+.+.+.+.+.+.+.+.+.+.+.+.+.+.+.+.+.+.+.+.+.+.+.+.+.+.+.+.+.X.%.1 >   O 9 ",
"$.+.+.+.+.+.+.+.+.+.+.+.+.+.+.+.+.+.+.+.+.+.+.+.+.+.A = +.+.+.+.+.+.+.+.+.+.+.+.X.%.1 >   O 9 ",
"$.+.+.+.+.+.+.+.+.+.+.+.+.+.+.+.+.+.+.+.+.+.+.+.+.y.+ Y ^ +.+.+.+.+.+.+.+.+.+.+.X.%.1 >   O 9 ",
"$.+.+.+.+.+.+.+.+.+.+.+.+.+.+.+.+.+.+.+.+.+.+.+.q C ,.Y @.2 ;.+.+.+.+.+.+.+.+.+.X.%.1 >   O 9 ",
"$.+.+.+.+.+.+.+.+.+.+.+.+.+.+.+.+.+.+.+.+.+.+.G  .# N Y O.o.L +.+.+.+.+.+.+.+.+.X.%.1 >   O 9 ",
"$.+.+.+.+.+.+.+.+.+.+.+.+.+.+.+.+.+.+.+.+.+./ b U H Y * Y 0 g ;.+.+.+.+.+.+.+.+.X.%.1 >   O 9 ",
"$.+.+.+.+.+.+.+.+.+.+.+.+.+.+.+.e.+.+.+.+.+.w @.c m } * Y O.U $.+.+.+.+.+.+.+.+.X.%.1 >   O 9 ",
"$.+.+.+.+.+.+.+.+.+.+.+.+.+.+.v ,.F P 9 ;.+.$.v ,.X * * Y 0 ( *.+.+.+.+.+.+.+.+.X.%.1 >   O 9 ",
"$.+.+.+.+.+.+.+.+.+.+.+.+.+.X.! . T Y 2.D - +.$.-.,.N Y 0 o.=.+.+.+.+.+.+.+.+.+.X.%.1 >   O 9 ",
"$.+.+.+.+.+.+.+.+.+.+.+.+.+.4 p o.H * O.0 w.l +.G X + 0 C 3 +.+.+.+.+.+.+.+.+.+.X.%.1 >   O 9 ",
"$.+.+.+.+.+.+.+.+.+.+.+.+.+.;.q  .a * Y * 0 f i ..o  .Y ` +.+.+.+.+.+.+.+.+.+.+.X.%.1 >   O 9 ",
"$.+.+.+.+.+.+.+.+.+.+.+.+.+.+...! U n Y Y O.~ ] +.o t.o.& +.+.+.+.+.+.+.+.+.+.+.X.%.1 >   O 9 ",
"$.+.+.+.+.+.+.+.+.+.+.+.+.+.+.+.M C #.* Y 0 5.$./ a N 5.+.+.+.+.+.+.+.+.+.+.+.+.X.%.1 >   O 9 ",
"$.+.+.+.+.+.+.+.+.+.+.+.+.+.+.+.+.-.C n 0 ~ [ +.d a } o +.+.+.+.i ' h =.+.+.+.+.X.%.1 >   O 9 ",
"$.+.+.+.+.+.+.r.S 4 r.u ' 4 +.+.+.M f H 0 5 +.+.w | } B +.+.+.R >.,.+ U K +.+.+.X.%.1 >   O 9 ",
"$.+.+.+.+.+.+.- 5 D K = . X.+.+.+.y . H 0 g +.+.@ U * 5 +.+.+.d  .#.} Y * z +.+.X.%.1 >   O 9 ",
"$.+.+.+.+.+.+.` * @.C N @.E S +.+.R b 6.0 l +.+.0.X * 5 +.+.+.G f | * @.O.* 7 +.X.%.1 >   O 9 ",
"$.+.+.+.+.+.+.t a ~ >.n O.0 ( L +.R C + Y 7 +.+.<.,.* 5 +.+.q.a U n 0 O.Y . V +.X.%.1 >   O 9 ",
"$.+.+.+.+.+.+.4 - X . | t.* 0 z +.R . + @._ +.$.A b } C t 1 ! 2.. + o D 8._ +.+.X.%.1 >   O 9 ",
"$.+.+.+.+.+.+.+.X.- # ,., O.0 Q +.y ,.T + 7 +.+.A X T Y 2.. + >.O V < +.+.+.+.+.X.%.1 >   O 9 ",
"$.+.+.+.+.+.+.+.+.e $ n t.B ` r.+.:.b T . 3 +.+.A X  .0 0 o.: u +.+.+.+.+.+.+.+.X.%.1 >   O 9 ",
"$.+.+.+.+.+.+.+.+.L g N Q +.+.+.+.% . n 2.&.+.+.1.. ~ ~ E u +.+.+.+.+.+.+.+.+.+.X.%.1 >   O 9 ",
"$.+.+.+.+.+.+.+.+.9 ; * : +.+.+.+./ . T C u +.y s . Y ; +.+.+.+.+.+.+.+.+.+.+.+.X.%.1 >   O 9 ",
"$.+.+.+.+.+.+.+.r.> b  .3 +.+.+.+.d 6.n ~ 7 q.| f b Y 5 +.+.+.+.+.+.+.+.+.+.+.+.X.%.1 >   O 9 ",
"$.+.+.+.+.+.+.+.< Q N B W +.+.+.+.w + + O.. 6., . b Y # +.+.+.+.+.+.+.+.+.+.+.+.X.%.1 >   O 9 ",
"$.+.+.+.+.+.+.+.r a * F +.+.+.+.+.) + 2.0 O.5.K X 6.O.5 +.+.+.+.+.+.+.+.+.+.+.+.X.%.1 >   O 9 ",
"$.+.+.+.+.+.+.u O n } 3.+.+.+.+.+.- f n Y 6 2 : #.m Y c +.+.+.+.+.+.+.+.+.+.+.+.X.%.1 >   O 9 ",
"$.+.+.+.+.+.$.Z a , + _ +.+.+.+.R o ,.O. .k _ 2 B + } . e.+.+.+.+.+.+.+.+.+.+.+.X.%.1 >   O 9 ",
"$.+.+.+.+.+.u 8.+ , c i +.+.+.) p ,.. 0 w.k e _ # + @.C L +.+.+.+.+.+.+.+.+.+.+.X.%.1 >   O 9 ",
"$.+.+.+.+.$.[ | . Y x +.+.R h X * C b 0 w.r r.r # 2.}  .t +.+.+.+.+.+.+.+.+.+.+.X.%.1 >   O 9 ",
"$.+.+.+.+.u s . m 0 = :.0.p Y . z o T 0 5.L $.Z # H , 0 6 W +.+.+.+.+.+.+.+.< =.X.%.1 >   O 9 ",
"$.+.+.+.{ A 6.| } O.w.a N 0 f k j 8.* o.[ *.+.j # H + O.O.# J O ` O $ 7.J s p # l % 1 >   O 9 ",
"$.+.+.*.- b X H O.Y O.0 0 + 2 r.$.e   [ $.+.+.e ! + b Y * 0 O.t. ., , N @.Y O.0 c [ 1 >   O 9 ",
"$.+.$.e p f a * Y * Y 0 f 2 *.+.+.+.$.+.+.+.+.X.I , o , Y Y Y * * @.* @.* * Y 0 ; t 1 >   O 9 ",
"$.+.i 4.T c m * * 0 0 o._ +.+.+.+.+.+.+.+.+.+.+.q.,.. ! n * @.} * @.Y Y O.0 O.C Z %.1 >   O 9 ",
"$.+.e I * B T O.0 @.( =.+.+.+.+.+.+.+.+.+.+.+.+.4 8 a 2.H } Y O.0 O.O.* , X = t X.%.1 >   O 9 ",
"$.+.& ' +  .N w.B P { +.+.+.+.+.+.+.+.+.+.+.+.+.+.*.j $ x >.B B >.F D K 7 e *.+.X.%.1 >   O 9 ",
"$.+.+.S ' = g 8 u ;.+.+.+.+.+.+.+.+.+.+.+.+.+.+.+.+.+.r.X.S i L S u & *.+.+.+.+.X.%.1 >   O 9 ",
"$.+.+.+.$.*.r.+.+.+.+.+.+.+.+.+.+.+.+.+.+.+.+.+.+.+.+.+.+.+.+.+.+.+.+.+.+.+.+.+.X.%.1 >   O 9 ",
"$.+.+.+.+.+.+.+.+.+.+.+.+.+.+.+.+.+.+.+.+.+.+.+.+.+.+.+.+.+.+.+.+.+.+.+.+.+.+.+.X.%.1 >   O 9 ",
"$.+.+.+.+.+.+.+.+.+.+.+.+.+.+.+.+.+.+.+.+.+.+.+.+.+.+.+.+.+.+.+.+.+.+.+.+.+.+.+.X.%.1 >   O 9 ",
"$.+.+.+.+.+.+.+.+.+.+.+.+.+.+.+.+.+.+.+.+.+.+.+.+.+.+.+.+.+.+.+.+.+.+.+.+.+.+.+.X.%.1 >   O 9 ",
"$.+.+.+.+.+.+.+.+.+.+.+.+.+.+.+.+.+.+.+.+.+.+.+.+.+.+.+.+.+.+.+.+.+.+.+.+.+.+.+.X.%.1 >   O 9 ",
"$.+.+.+.+.+.+.+.+.+.+.+.+.+.+.+.+.+.+.+.+.+.+.+.+.+.+.+.+.+.+.+.+.+.+.+.+.+.+.+.X.%.1 >   O 9 ",
"$.+.+.+.+.+.+.+.+.+.+.+.+.+.+.+.+.+.+.+.+.+.+.+.+.+.+.+.+.+.+.+.+.+.+.+.+.+.+.+.X.%.1 >   O 9 ",
"$.+.+.+.+.+.+.+.+.+.+.+.+.+.+.+.+.+.+.+.+.+.+.+.+.+.+.+.+.+.+.+.+.+.+.+.+.+.+.+.X.%.1 >   O 9 ",
"$.+.+.+.+.+.+.+.+.+.+.+.+.+.+.+.+.+.+.+.+.+.+.+.+.+.+.+.+.+.+.+.+.+.+.+.+.+.+.+.X.%.1 >   O 9 ",
"$.+.+.+.+.+.+.+.+.+.+.+.+.+.+.+.+.+.+.+.+.+.+.+.+.+.+.+.+.+.+.+.+.+.+.+.+.+.+.+.X.%.1 >   O 9 ",
"$.+.+.+.+.+.+.+.+.+.+.+.+.+.+.+.+.+.+.+.+.+.+.+.+.+.+.+.+.+.+.+.+.+.+.+.+.+.+.+.X.:.1 >   O 9 ",
"r.r.$.$.$.$.$.$.$.$.$.$.$.$.$.$.$.$.$.$.$.$.$.$.$.$.$.$.$.$.$.$.$.$.$.$.$.$.$.r.i % 7 '   O 9 ",
"X.W W W W W W W W W W W W W W W W W W W W W W W W W W W W W W W W W W W W W W W :.&.8 h $ O 9 ",
"4 3 3 3 3 3 3 3 3 3 3 3 3 3 3 3 3 3 3 3 3 3 3 3 3 3 3 3 3 3 3 3 3 3 3 3 3 3 3 3 q.0.> ` $ $ r.",
"u.R 3 &.&.&.&.&.&.&.&.&.&.&.&.&.&.&.&.&.&.&.&.&.&.&.&.&.&.&.&.&.&.&.&.&.&.&.&.&.q.7 0.- - < u."
};
