/* XPM */
static char *_1f4777177e04250eed4ce137206c1409vRP6a607Xqs49m7[] = {
/* columns rows colors chars-per-pixel */
"47 63 128 2 ",
"   c #868787",
".  c #393736",
"X  c gray75",
"o  c #767778",
"O  c #686968",
"+  c #A4A6A5",
"@  c gray95",
"#  c #E4E4E4",
"$  c #181716",
"%  c #9DA3AB",
"&  c #DADBDD",
"*  c #959798",
"=  c #B7C1CA",
"-  c #FBFBFB",
";  c #C8D2D9",
":  c #282626",
">  c #EDF2F5",
",  c #565757",
"<  c #C3C4C4",
"1  c #D7D7D7",
"2  c #D4DCE4",
"3  c #969CA3",
"4  c #DAE4E9",
"5  c #C5CCD2",
"6  c #E3E8EB",
"7  c #E4EDF4",
"8  c #444344",
"9  c gray79",
"0  c #030302",
"q  c #B6BCC2",
"w  c gray99",
"e  c gray97",
"r  c #4B4A4A",
"t  c gray91",
"y  c #A4AAB2",
"u  c #D5D8DB",
"i  c gray93",
"p  c #C6C9CC",
"a  c #F4F4F4",
"s  c #ADB2B7",
"d  c #E1E1E1",
"f  c #EEEEEF",
"g  c #777B80",
"h  c #7C8085",
"j  c #535B65",
"k  c #F6F9FB",
"l  c #B2B5B5",
"z  c #B6BABC",
"x  c #676C73",
"c  c #8B929A",
"v  c #44413D",
"b  c #E5E6E6",
"n  c #6F7375",
"m  c #4B4F53",
"M  c #F1F3F4",
"N  c gray82",
"B  c #FAFBFC",
"V  c #FAFCFC",
"C  c #B2B6BA",
"Z  c #F2F5F6",
"A  c #CECECE",
"S  c #4F5359",
"D  c #D0D6DB",
"F  c #F4F6F7",
"G  c #23211D",
"H  c #F5F7F8",
"J  c #353331",
"K  c #3A3B3E",
"L  c #E8EAEC",
"P  c #FDFDFD",
"I  c #646362",
"U  c #4B4845",
"Y  c #C0C1C1",
"T  c #82827E",
"R  c #54524F",
"E  c #45484D",
"W  c #474644",
"Q  c #3F3C3A",
"!  c #888C8F",
"~  c #F8F8F9",
"^  c #434448",
"/  c #4F4E4E",
"(  c #E9ECED",
")  c #11100F",
"_  c #1E1C1A",
"`  c #BFC6CC",
"'  c #2C2C2C",
"]  c #F9FAFA",
"[  c #0D0B0A",
"{  c #3F4145",
"}  c white",
"|  c #1D1E1E",
" . c #131213",
".. c #0C0D0E",
"X. c #FEFEFE",
"o. c gray92",
"O. c #FDFEFE",
"+. c #FEFEFF",
"@. c #6F6F6E",
"#. c #FEFFFF",
"$. c #D5D6D4",
"%. c #EFEFEF",
"&. c #61666A",
"*. c #454043",
"=. c #535153",
"-. c #807E7B",
";. c #B8B6B4",
":. c #5E5D5D",
">. c #8E8E8A",
",. c #403F3F",
"<. c #9FA1A0",
"1. c #C7C8C7",
"2. c #C6C6C5",
"3. c #ECEFEE",
"4. c #818181",
"5. c #333436",
"6. c #32302F",
"7. c #DCDFE0",
"8. c #E7EAEC",
"9. c #ECECED",
"0. c #ADAFB0",
"q. c #10100B",
"w. c #222121",
"e. c #CED1D5",
"r. c #E0E2E7",
"t. c #E2E5E7",
"y. c #CBCCCD",
"u. c None",
/* pixels */
"u.a t # # # # # # # # # # # # # # # # # # # # # # # # # # # # # # # # # # # # # d 1 N 1.A i u.",
"w @ @ @ @ @ @ @ @ @ @ @ @ @ @ @ @ @ @ @ @ @ @ @ @ @ @ @ @ @ @ @ @ @ @ @ @ @ @ %.i b & A < X ] ",
"w ] - - - - - - - - - - - - - - - - - - - - - - - - - - - - - - - - - - - - - ] e f # N 2.X %.",
"P } } } } } } } } } } } } } } } } } } } } } } } } } } } } } } } } } } } } } } } - @ b 1 1.X %.",
"X.} } } } } } } } } } } } } } } } } } } } } } } } } } } } } } } } } } } } } } } - @ t 1 9 X %.",
"X.} } } } } } } } } } } } } } } } } } } } } } } } } } } } } } } } } } } } } } } - a t 1 9 X %.",
"X.} } } } } } } } } } } } } } } } } } } } } } } } } } } } } } } } } } } } } } } - a t 1 9 X %.",
"X.} } } } } } } } } } } } } } - X I % # ~ X.} } } } } } } } } } } } } } } } } } - a t 1 9 X %.",
"X.} } } } } } } } } } } } } } a * w.' n p @ w X.} } } } } } } } } } } } } } } } - a t 1 9 X %.",
"X.} } } } } } } } } } } } } } ] + ,.6.q.' &.+ y.6 - } } } } } } } } } } } } } } - a t 1 9 X %.",
"X.} } } } } } } } } } } } } } #.9 r W : [ 0 ..w.{ l B } } } } } } } } } } } } } - a t 1 9 X %.",
"X.} } } } } } } } } } } } } } } %.@.W . $ _  .[ 0 5.D X.} } } } } } } } } } } } - a t 1 9 X %.",
"X.} } } } } } } X.X.} } } } } } X.Y r *.: G _  .0 { u } } } } } } } } } } } } } - a t 1 9 X %.",
"X.} } } } } } } X.X.X.} } } } } } e   r J $ ) q.m p P } } } } } } } } } } } } } - a t 1 9 X %.",
"X.} } } } } } } } } } } } } } } } } $.:.v _ [ E D P } } } } } } } } } } } } } } - a t 1 9 X %.",
"X.} } } } } } } } } } } } } } } } } F o 8 _ | % 7 L L O.} } } } } } } } } } } } - a t 1 9 X %.",
"X.} } } } } } } } } } } } } } } } } B >.8 $ : y * / g u w } } } } } } } } } } } - a t 1 9 X %.",
"X.} } } } } } } } } } } } } } } } X.k   W $ $ ^ : 0 0 K & } } } } } } } } } } } - a t 1 9 X %.",
"X.} } } } } } } } } } } } } - M %.8.9 I ,.$ [ 0 0 ) $ ^ e.} } } } } } } } } } } - a t 1 9 X %.",
"X.} } } } } } } } } } } } X.&   g o 8 =.. ) ) _ E n 3 5 L w } } } } } } } } } } - a t 1 9 X %.",
"X.} } } } } } } } } } } } X.2.' $ : _ =.Q ..' c ` ; 5 l 0.z 7.w } } } } } } } } - a t 1 9 X %.",
"X.} } } } } } } } } } } } } Z 0.@.I ! n r ) . 3 * g =.W W G K q P } } } } } } } - a t 1 9 X %.",
"X.} } } } } } } } P P } } #.P Z 2 q q o r _ .. .| J | 5.=._ 0 | < P } } } } } } - a t 1 9 X %.",
"X.} } } } } } } @ < Y 8.H Z 7.y 4.@.W ' *.$ $ K &.  h @.:.Q  .0 K u O.} } } } } - a t 1 9 X %.",
"X.} } } } } } } d :.: o 3 4.Q $ | K / m ,. .h 5 ; 5 4 D -.6.: ..0 o 9.} } } } } - a t 1 9 X %.",
"X.} } } } } } } Z >.$ 5.6.[ $ S ! y ; Y W $ y 5 ! x h y T J $ 0 0 ! M } } } } } - a t 1 9 X %.",
"X.} } } } } } } X.d :.. : 0 x 2 > 2 4 0.r | S :..  .w., :.J 0 [ g L X.} } } } } - a t 1 9 X %.",
"X.} } } } } } } } w 1.U ' $ E * ! n O =./ : 0 0 q.[ K , J [ 0 h @ P } } } } } } - a t 1 9 X %.",
"X.} } } } } } } } } e + . 6.' | ) ..) : U $  .E &.g O ,._ 0 { r.} } } } } } } } - a t 1 9 X %.",
"X.} } } } } } } } } } %.>.Q K q. .S g x ,.$ g q ` q I '  . .C P } } } } } } } } - a t 1 9 X %.",
"X.} } } } } } } } } } O.t -.. ) : 3 2 z v | % D e.T J 6.[ g F } } } } } } } } } - a t 1 9 X %.",
"X.} } } } } } } } } } } P 7.@.: [ m s * W _ m h @./ Q ) K 7.} } } } } } } } } } - a t 1 9 X %.",
"X.} } } } } } } } } } } } H + W : ..w.8 r $ [ ..$ 6.$ 0 h ~ } } } } } } } } } } - a t 1 9 X %.",
"X.} } } } } } } } } } } } P y./ Q G 0 5.6.$ )  . .| | | % - } } } } } } } } } } - a t 1 9 X %.",
"X.} } } } } } } } } } } } } 3.  *._ ) { / w.q...$ x * <.t } } } } } } } } } } } - a t 1 9 X %.",
"X.} } } } } } } } } } } } X.> + Q 0 j * R _ { r $ j ; k } } } } } } } } } } } } - a t 1 9 X %.",
"X.} } } } } } } } } } } ] L z R [ 5.= 5 U ) c z W ..m 5 P } } } } } } } } } } } - a t 1 9 X %.",
"X.} } } } } } } } } } P u 4.r 0 $ 3 7 l W  .3 2 <.6.$ K C F X.} } } } } } } } } - a t 1 9 X %.",
"X.} } } } } } } } } } F <.J [ ) g 2 6 <.Q  .3 > # @.: _ $   & F X.} } } } } } } - a t 1 9 X %.",
"X.} } } } } } } } #.M X :.' 0 E ; 4 4 * .  .3 } - Y *.. : 0 K <.& M w } } } } } - a t 1 9 X %.",
"X.} } } } } } } B L <.,.G : [ K = 4 6 >.. ..3 w } @ <.,.U G 0 ..5.  Y t ] } } } - a t 1 9 X %.",
"X.} } } } } P %.Y @.: 0 ' h o w.S ` > 4.. [ + P } X.3.T K U $ 0 0 0 | O 0.t.w } - a t 1 9 X %.",
"X.} } } } %.N   Q [ [ m q > t.O  .&.= @.K ..+ } } } X.& , Q 8 $ ) q.0 0 0 { s f - a t 1 9 X %.",
"X.} } } N * 8 ' : ,.* t.P } V p . : :.I . 0 3 } } } } B Y W ,.6.[ 0 [ : 5.$ ) g & a t 1 9 X %.",
"X.} } } <.n :.  0.& F } } } } F >.' / / G 0 c O.} } } } ] 0.Q _ [ | h p & 1.  / g a t 1 9 X %.",
"X.} } } b & & @ B O.} } } } } +.7.R r .  .0 g - } } } } } e Y >.3 y.@ w O.w a $.X a t 1 9 X %.",
"X.} } } } X.X.} } } } } } } } } B ;./ ,._ [ , M } } } } } } - F F P } } } } } X.] a t 1 9 X %.",
"X.} } } } } } } } } } } } } } } } M T r w.[ K 8.} } } } } } } } } } } } } } } } - a t 1 9 X %.",
"X.} } } } } } } } } } } } } } } } V * r : q.: & } } } } } } } } } } } } } } } } - a t 1 9 X %.",
"X.} } } } } } } } } } } } } } } } w + r J ) $ ` } } } } } } } } } } } } } } } } - a t 1 9 X %.",
"X.} } } } } } } } } } } } } } } } X.2.r ,. . .q } } } } } } } } } } } } } } } } - a t 1 9 X %.",
"X.} } } } } } } } } } } } } } } } } # , 8 $ ) s X.} } } } } } } } } } } } } } } - a t 1 9 X %.",
"X.} } } } } } } } } } } } } } } } } e o *.w...s } } } } } } } } } } } } } } } } - a t 1 9 X %.",
"X.} } } } } } } } } } } } } } } } } O.l Q w.$ e.} } } } } } } } } } } } } } } } - a t 1 9 X %.",
"X.} } } } } } } } } } } } } } } } } } ( O $ &.Z } } } } } } } } } } } } } } } } - a t 1 9 X %.",
"X.} } } } } } } } } } } } } } } } } } B Y o e.X.} } } } } } } } } } } } } } } } - a t 1 9 X %.",
"X.} } } } } } } } } } } } } } } } } } } } } } } } } } } } } } } } } } } } } } } - a t 1 9 X %.",
"X.} } } } } } } } } } } } } } } } } } } } } } } } } } } } } } } } } } } } } } } - a t 1 9 X %.",
"X.} } } } } } } } } } } } } } } } } } } } } } } } } } } } } } } } } } } } } } } - @ t 1 9 X %.",
"P P X.X.X.X.X.X.X.X.X.X.X.X.X.X.X.X.X.X.X.X.X.X.X.X.X.X.X.X.X.X.X.X.X.X.X.X.X.P ] @ b $.1.X %.",
"- e e e e e e e e e e e e e e e e e e e e e e e e e e e e e e e e e e e e e e e @ o.d N 2.X %.",
"w i i i i i i i i i i i i i i i i i i i i i i i i i i i i i i i i i i i i i i 9.t d 1 y.< 2.P ",
"u.~ 9.o.o.o.o.o.o.o.o.o.o.o.o.o.o.o.o.o.o.o.o.o.o.o.o.o.o.o.o.o.o.o.o.o.o.o.o.o.t b d & & e u."
};
