/* XPM */
static char *_50de3f9f413468cdc47b6d6e4981bc6v9Uwe4SQ6plFQwYS[] = {
/* columns rows colors chars-per-pixel */
"47 63 128 2 ",
"   c #D29494",
".  c gray79",
"X  c #C9716A",
"o  c #8D1415",
"O  c #E2B4B0",
"+  c #993B40",
"@  c #97353A",
"#  c #F6ECE9",
"$  c #B67D85",
"%  c #A43636",
"&  c #E4E4E4",
"*  c #C69AA8",
"=  c gray95",
"-  c #E3C9CD",
";  c #DCA7A6",
":  c #FAFAFB",
">  c #A3464B",
",  c #D3B8C3",
"<  c #BB5A5B",
"1  c #A25A63",
"2  c gray99",
"3  c #B68591",
"4  c #D7D7D7",
"5  c #702532",
"6  c #791516",
"7  c #97282A",
"8  c #58090E",
"9  c #EBDDE2",
"0  c #D6C3CD",
"q  c #A42729",
"w  c #641317",
"e  c #A76167",
"r  c #CC807E",
"t  c #98414A",
"y  c gray75",
"u  c #B36C68",
"i  c gray91",
"p  c gray97",
"a  c #8F5D67",
"s  c #C9A3B4",
"d  c #B8747A",
"f  c gray93",
"g  c #DACAD3",
"h  c #731A21",
"j  c #EDE2E5",
"k  c #A24D52",
"l  c #EFEFEF",
"z  c #A6585A",
"x  c #C5C5C5",
"c  c gray86",
"v  c #E0BCBA",
"b  c #64070A",
"n  c #862524",
"m  c #E1E1E1",
"M  c #974C5A",
"N  c #932F37",
"B  c #985658",
"V  c #9B332D",
"C  c #F2EDEF",
"Z  c #B896A4",
"A  c #E6D7DD",
"S  c #650D14",
"D  c #EDE6E9",
"F  c #E9CDD0",
"G  c #8B424F",
"H  c #B4677A",
"J  c #B56261",
"K  c #780D16",
"L  c #ECD6D4",
"P  c #852B34",
"I  c #F4F4F4",
"U  c #AA524C",
"Y  c #F2DDD7",
"T  c #A6666F",
"R  c #85363A",
"E  c #713340",
"W  c #A97781",
"Q  c #EFDDDC",
"!  c #FDFAF9",
"~  c #D0D0D0",
"^  c #DFB4AC",
"/  c #F6F7F8",
"(  c #F8F7F8",
")  c #E4D2D5",
"_  c #F7F0F2",
"`  c #700B0C",
"'  c #D8AFB7",
"]  c #DDA09C",
"[  c #E4E4EA",
"{  c #F5F5F7",
"}  c #F8F8F8",
"|  c #FBFBFB",
" . c #F7F5F4",
".. c #661210",
"X. c white",
"o. c #FEFEFE",
"O. c gray92",
"+. c #FEFEFF",
"@. c #FDFDFD",
"#. c #FAF8F9",
"$. c #F2F0F4",
"%. c #F2F6F7",
"&. c #FBF3E8",
"*. c #F5F3F6",
"=. c #FCFBFC",
"-. c #F7F5F7",
";. c #FDFEFE",
":. c #FEFCFD",
">. c #FEFDFE",
",. c #CFA3AD",
"<. c #FBFCFC",
"1. c #CDB2BF",
"2. c #9C747F",
"3. c #841E29",
"4. c #A94440",
"5. c #AF484C",
"6. c #F4E0DD",
"7. c #BA5150",
"8. c #F7F9FA",
"9. c #E0D2DA",
"0. c #9B251E",
"q. c #80464C",
"w. c #9C504C",
"e. c #F9F9FA",
"r. c #F9FAFB",
"t. c #7E3F4D",
"y. c #E6C4C0",
"u. c None",
/* pixels */
"u.I i & & & & & & & & & & & & & & & & & & & & & & & & & & & & & & & & & & & & & m 4 ~ x ~ f u.",
"2 = = = = = = = = = = = = = = = = = = = = = = = = = = = = = = = = = = = = = = l f & c ~ y y : ",
"2 : | | | | | | | | | | | | | | | | | | | | | | | | | | | | | | | | | | | | | : p f & ~ x y l ",
"@.X.X.X.X.X.X.X.X.X.X.X.X.X.X.X.X.X.X.X.X.X.X.X.X.X.X.X.X.X.X.X.X.X.X.X.X.X.X.X.| = & 4 . y l ",
"o.X.X.X.X.X.X.X.X.X.X.X.X.X.X.X.X.X.X.| F 9 +.X.X.X.X.X.X.X.X.X.X.X.X.X.X.X.X.X.| = i 4 . y l ",
"o.X.X.X.X.X.X.X.X.X.X.X.X.X.X.X.X.X.(   0.3., X.X.X.X.X.X.X.X.X.X.X.X.X.X.X.X.X.| I i 4 . y l ",
"o.X.X.X.X.X.X.X.X.X.X.X.X.X.X.X.X. .X 7 w.` K , o.X.X.X.X.X.X.X.X.X.X.X.X.X.X.X.| I i 4 . y l ",
"o.X.X.X.X.X.X.X.X.X.X.X.X.X.X.X.2 r o W V 6 S h 9 +.X.X.X.X.X.X.X.X.X.X.X.X.X.X.| I i 4 . y l ",
"o.X.X.X.X.X.X.X.X.X.X.X.X.X.X.X.# q M J o o 6 b G ( X.X.X.X.X.X.X.X.X.X.X.X.X.X.| I i 4 . y l ",
"o.X.X.X.X.X.X.X.X.X.X.X.X.X.X.X.Q o T U o o o 6 8 * 2 X.X.X.X.X.X.X.X.X.X.X.X.X.| I i 4 . y l ",
"o.X.X.X.X.X.X.X.X.X.X.X.X.X.X.X.6.o B d 0.o o 6 b 5 $.X.X.X.X.X.X.X.X.X.X.X.X.X.| I i 4 . y l ",
"o.X.X.X.X.X.X.X.X.X.X.X.X.X.X.X.-.r q T 4.o o o ..w c +.X.X.X.X.X.X.X.X.X.X.X.X.| I i 4 . y l ",
"o.X.X.X.X.X.X.X.X.X.X.X.X.X.X.X.X.;.; 7 u o o 6 8 w j X.X.X.X.X.X.X.X.X.X.X.X.X.| I i 4 . y l ",
"o.X.X.X.X.X.X.X.X.X.X.X.X.X.X.X.X.X.# % e 0.o 6 8 3 8.X.X.X.X.X.X.X.X.X.X.X.X.X.| I i 4 . y l ",
"o.X.X.X.X.X.X.X.X.X.X.X.X.X.X.X.X.+.# 4.z q K b M { X.X.X.X.X.X.X.X.X.X.X.X.X.X.| I i 4 . y l ",
"o.X.X.X.X.X.X.X.X.X.X.X.X.X.X.X.X.X.= 7.z V ` S 0 ;.X.X.X.X.X.X.X.X.X.X.X.X.X.X.| I i 4 . y l ",
"o.X.X.X.X.X.X.X.X.X.X.X.X.X.X.X.X.X.} < > V b 5 [ X.X.X.2 _ F ,.' #.X.X.X.X.X.X.| I i 4 . y l ",
"o.X.X.X.X.X.X.X.X.X.X.X.X.X.X.X.X.X.( < > V b E [ <.C A ] 5.> N ` H <.X.X.X.X.X.| I i 4 . y l ",
"o.X.X.X.X.X.X.X.X.X.X.X.X.X.X.X.X.+.: < > % b E 0 v J t G W $ 0.6 ` s X.X.X.X.X.| I i 4 . y l ",
"o.X.X.X.X.X.L j X.X.X.X.X.X.X.X.X.X./ X > % ` w P B B q.B 1 W U o ` h 9 X.X.X.X.| I i 4 . y l ",
"o.X.X.X.X. .5.N 0 2 X.X.X.X.X.X.o.p O.< k V K 8 b P t k $ * < J % K b t -.X.X.X.| I i 4 . y l ",
"o.X.X.X.X.Q 7 R K * :.X.X.X.o.I )   5.+ z o ..5 * - j #.>.X.6.% J o o b $ @.X.X.| I i 4 . y l ",
"o.X.X.X.X.9 q B 6 K s { } j ,.J N R n e 4.` w g :.+.X.X.X.o._ % u o o w 8 0 2 X.| I i 4 . y l ",
"o.X.X.X.X.C % 1 7 ` K H J 7 h h h M d > k ` h [ X.X.X.X.X.X.^ t < o o 6 8 t.j X.| I i 4 . y l ",
"o.X.X.X.X.! < t u o 6 o 6 8 h d - _ >.] > 6 5 C X.X.X.X.X.&.% d q K ` h P ,.( X.| I i 4 . y l ",
"o.X.X.X.X.X.L q T z o o 6 w g X.X.X.X.; t h E I X.X.X.X.! X z > K ` t ) C X.X.X.| I i 4 . y l ",
"o.X.X.X.X.X.<.F q e 4.o 6 w D X.X.X.X.] + 6 t.( X.X.X.o.^ + e o b G $.X.X.X.X.X.| I i 4 . y l ",
"o.X.X.X.X.X.X.o.L % e % K ..W @.X.X.X.] + 6 a =.X.X.X.Y % T n b P C X.X.X.X.X.X.| I i 4 . y l ",
"o.X.X.X.X.X.X.X.;.Y % z 7 6 S 9.X.X.X.] + ..a @.X.X.2 7.z + ` h A X.X.X.X.X.X.X.| I i 4 . y l ",
"o.X.X.X.X.X.X.X.X.+.L % e V 8 G | X.X.  > 6 t.$.;.=.] t k ` ` , :.X.X.X.X.X.X.X.| I i 4 . y l ",
"o.X.X.X.X.X.X.X.X.X.@.y.7 e n 8 s :.# r k n w 1 * r % e 6 S 3 @.X.X.X.X.X.X.X.X.| I i 4 . y l ",
"o.X.X.X.X.X.X.X.X.X.X.| ] N B ..w M k + J K ..8 P 1 W @ ` 5 f X.X.X.X.X.X.X.X.X.| I i 4 . y l ",
"o.X.X.X.X.X.X.X.X.X.X.;.# % w.h 8 S P @ z K S h + k w.n b G : X.X.X.X.X.X.X.X.X.| I i 4 . y l ",
"o.X.X.X.X.X.X.X.X.X.X.X.: X 3.N z $ ,.7.+ ..t.g 9 g '   d 9 X.X.X.X.X.X.X.X.X.X.| I i 4 . y l ",
"o.X.X.X.X.X.X.X.X.X.X.X.+. .9 C -.8.%.  N ..2.8.X.X.;.<.2 X.X.X.X.X.X.X.X.X.X.X.| I i 4 . y l ",
"o.X.X.X.X.X.X.X.X.X.X.X.X.X.X.X.X.X.|   @ S 2.@.X.X.X.X.X.X.X.X.X.X.X.X.X.X.X.X.| I i 4 . y l ",
"o.X.X.X.X.X.X.X.X.X.X.X.X.X.X.X.X.X.2 ; @ ..W @.X.X.X.X.X.X.X.X.X.X.X.X.X.X.X.X.| I i 4 . y l ",
"o.X.X.X.X.X.X.X.X.X.X.X.X.X.X.X.X.X.2 ; @ ..3 ;.X.X.X.X.X.X.X.X.X.X.X.X.X.X.X.X.| I i 4 . y l ",
"o.X.X.X.X.X.X.X.X.X.X.X.X.X.X.X.X.X.2 ^ + ..Z X.X.X.X.X.X.X.X.X.X.X.X.X.X.X.X.X.| I i 4 . y l ",
"o.X.X.X.X.X.X.X.X.X.X.X.X.X.X.X.X.X.@.^ @ ..Z @.X.X.X.X.X.X.X.X.X.X.X.X.X.X.X.X.| I i 4 . y l ",
"o.X.X.X.X.X.X.X.X.X.X.X.X.X.X.X.X.X.;.O + S Z X.X.X.X.X.X.X.X.X.X.X.X.X.X.X.X.X.| I i 4 . y l ",
"o.X.X.X.X.X.X.X.X.X.X.X.X.X.X.X.X.X.2 ; @ S * ;.X.X.X.X.X.X.X.X.X.X.X.X.X.X.X.X.| I i 4 . y l ",
"o.X.X.X.X.X.X.X.X.X.X.X.X.X.X.X.X.X.=.; @ S * X.X.X.X.X.X.X.X.X.X.X.X.X.X.X.X.X.| I i 4 . y l ",
"o.X.X.X.X.X.X.X.X.X.X.X.X.X.X.X.X.X.@.; @ S s ;.X.X.X.X.X.X.X.X.X.X.X.X.X.X.X.X.| I i 4 . y l ",
"o.X.X.X.X.X.X.X.X.X.X.X.X.X.X.X.X.X.X.; N S s X.X.X.X.X.X.X.X.X.X.X.X.X.X.X.X.X.| I i 4 . y l ",
"o.X.X.X.X.X.X.X.X.X.X.X.X.X.X.X.X.X.o.O @ w 1.;.X.X.X.X.X.X.X.X.X.X.X.X.X.X.X.X.| I i 4 . y l ",
"o.X.X.X.X.X.X.X.X.X.X.X.X.X.X.X.X.X.X.O N .., X.X.X.X.X.X.X.X.X.X.X.X.X.X.X.X.X.| I i 4 . y l ",
"o.X.X.X.X.X.X.X.X.X.X.X.X.X.X.X.X.X.o.v N S , ;.X.X.X.X.X.X.X.X.X.X.X.X.X.X.X.X.| I i 4 . y l ",
"o.X.X.X.X.X.X.X.X.X.X.X.X.X.X.X.X.X.o.v N w , X.X.X.X.X.X.X.X.X.X.X.X.X.X.X.X.X.| I i 4 . y l ",
"o.X.X.X.X.X.X.X.X.X.X.X.X.X.X.X.X.X.o.y.N w 0 ;.X.X.X.X.X.X.X.X.X.X.X.X.X.X.X.X.| I i 4 . y l ",
"o.X.X.X.X.X.X.X.X.X.X.X.X.X.X.X.X.X.X.y.@ w 0 X.X.X.X.X.X.X.X.X.X.X.X.X.X.X.X.X.| I i 4 . y l ",
"o.X.X.X.X.X.X.X.X.X.X.X.X.X.X.X.X.X.o.- @ w 0 X.X.X.X.X.X.X.X.X.X.X.X.X.X.X.X.X.| I i 4 . y l ",
"o.X.X.X.X.X.X.X.X.X.X.X.X.X.X.X.X.X.X.F @ h 9.X.X.X.X.X.X.X.X.X.X.X.X.X.X.X.X.X.| I i 4 . y l ",
"o.X.X.X.X.X.X.X.X.X.X.X.X.X.X.X.X.X.X.Q + 5 D X.X.X.X.X.X.X.X.X.X.X.X.X.X.X.X.X.| I i 4 . y l ",
"o.X.X.X.X.X.X.X.X.X.X.X.X.X.X.X.X.X.X.D + 5 *.X.X.X.X.X.X.X.X.X.X.X.X.X.X.X.X.X.| I i 4 . y l ",
"o.X.X.X.X.X.X.X.X.X.X.X.X.X.X.X.X.X.X._ 4.G =.X.X.X.X.X.X.X.X.X.X.X.X.X.X.X.X.X.| I i 4 . y l ",
"o.X.X.X.X.X.X.X.X.X.X.X.X.X.X.X.X.X.X.8.< 3 @.X.X.X.X.X.X.X.X.X.X.X.X.X.X.X.X.X.| I i 4 . y l ",
"o.X.X.X.X.X.X.X.X.X.X.X.X.X.X.X.X.X.X.X.9 _ X.X.X.X.X.X.X.X.X.X.X.X.X.X.X.X.X.X.| I i 4 . y l ",
"o.X.X.X.X.X.X.X.X.X.X.X.X.X.X.X.X.X.X.X.X.X.X.X.X.X.X.X.X.X.X.X.X.X.X.X.X.X.X.X.| = i 4 . y l ",
"@.@.o.o.o.o.o.o.o.o.o.o.o.o.o.o.o.o.o.o.o.o.o.o.o.o.o.o.o.o.o.o.o.o.o.o.o.o.o.@.e.= & 4 . y l ",
"| p p p p p p p p p p p p p p p p p p p p p p p p p p p p p p p p p p p p p p p = O.m ~ x y l ",
"2 f f f f f f f f f f f f f f f f f f f f f f f f f f f f f f f f f f f f f f f i m 4 . x x @.",
"u.} f O.O.O.O.O.O.O.O.O.O.O.O.O.O.O.O.O.O.O.O.O.O.O.O.O.O.O.O.O.O.O.O.O.O.O.O.O.O.& m c c p u."
};
